<svg xmlns="http://www.w3.org/2000/svg" viewBox="0 0 869.47 143.98"><defs><style>.cls-1{fill:#004c9b;}.cls-2{fill:#ffdc00;}.cls-3{fill:#fff;}</style></defs><title>RU-DMP-CCS</title><g id="CCS"><path d="M389.52,114.93a13.69,13.69,0,0,1-5.13-1,13,13,0,0,1-4.26-2.79,12.75,12.75,0,0,1-3-4.77,20.5,20.5,0,0,1,0-13.19,12.63,12.63,0,0,1,3-4.76,13.19,13.19,0,0,1,4.26-2.8,13.68,13.68,0,0,1,5.13-1A12.43,12.43,0,0,1,397.16,87a9.47,9.47,0,0,1,3.7,6.55l-.42.42h-1.68l-.42-.42a8,8,0,0,0-2.88-5,9.39,9.39,0,0,0-5.94-1.76,10,10,0,0,0-7.9,3.44q-3,3.45-3,9.58t3,9.57a10,10,0,0,0,7.9,3.45q7.51,0,8.82-7.14l.42-.42h1.68l.42.42a9.84,9.84,0,0,1-3.66,6.91A12.33,12.33,0,0,1,389.52,114.93Z" transform="translate(-39.58 -39.36)"/><path d="M420.41,112.05a9.83,9.83,0,0,1-13.9,0q-2.72-2.88-2.71-8T406.51,96a9.85,9.85,0,0,1,13.9,0c1.8,1.92,2.71,4.6,2.71,8.05S422.21,110.13,420.41,112.05Zm-1.79-14.47a6.78,6.78,0,0,0-10.33,0,9.78,9.78,0,0,0-2,6.43,9.73,9.73,0,0,0,2,6.42,6.76,6.76,0,0,0,10.33,0,11.41,11.41,0,0,0,0-12.85Z" transform="translate(-39.58 -39.36)"/><path d="M442.44,101.49v12.6l-.42.42h-1.68l-.42-.42V100.23q0-5-4.62-5-5.88,0-5.88,6.3v12.6l-.42.42h-1.68l-.42-.42V93.93l.42-.42h1.26l.42.42.42,2.1h.42a5,5,0,0,1,2.2-2.12,7.66,7.66,0,0,1,3.68-.82,6,6,0,0,1,5.88,3.36H442a6.81,6.81,0,0,1,6.3-3.36,6.44,6.44,0,0,1,7.14,7.14v13.86l-.42.42h-1.68l-.42-.42V100.23q0-5-4.62-5Q442.44,95.19,442.44,101.49Z" transform="translate(-39.58 -39.36)"/><path d="M469.74,114.93a8.65,8.65,0,0,1-4.33-1,5.72,5.72,0,0,1-2.39-2.39h-.42v10.92l-.42.42H460.5l-.42-.42V93.93l.42-.42h1.26l.42.42.42,2.52H463a5.8,5.8,0,0,1,2.39-2.4,8.65,8.65,0,0,1,4.33-1,7.72,7.72,0,0,1,6.55,3,12.81,12.81,0,0,1,2.27,7.92,12.8,12.8,0,0,1-2.27,7.91A7.7,7.7,0,0,1,469.74,114.93Zm-5.38-4.35a6.58,6.58,0,0,0,9.91,0Q476,108.33,476,104t-1.77-6.58a6.6,6.6,0,0,0-9.91,0c-1.18,1.5-1.76,3.69-1.76,6.58S463.18,109.08,464.36,110.58Z" transform="translate(-39.58 -39.36)"/><path d="M481.92,93.93l.42-.42H484l.42.42v13a6.3,6.3,0,0,0,1.34,4.45,4.85,4.85,0,0,0,3.7,1.43,6.22,6.22,0,0,0,5-2,8.37,8.37,0,0,0,1.68-5.56V93.93l.42-.42h1.68l.42.42v20.16l-.42.42H497l-.42-.42-.42-2.52h-.42a6.28,6.28,0,0,1-2.73,2.48,9.12,9.12,0,0,1-4,.88,6.85,6.85,0,0,1-5.21-2q-1.94-2-1.93-6Z" transform="translate(-39.58 -39.36)"/><path d="M514.68,114.09l-.42.42h-2.94a5.32,5.32,0,0,1-3.66-1.24,4.33,4.33,0,0,1-1.38-3.38V96l-.42-.42H502.5l-.42-.42V93.93l.42-.42h3.36l.42-.42V89.31l.42-.42h1.68l.42.42v3.78l.42.42h5l.42.42v1.26l-.42.42h-5l-.42.42v13.86a2.23,2.23,0,0,0,2.52,2.52h2.94l.42.42Z" transform="translate(-39.58 -39.36)"/><path d="M521.39,89.73l-.41.42h-1.69l-.42-.42V87.21l.42-.42H521l.41.42Zm0,24.36-.41.42h-1.69l-.42-.42V93.93l.42-.42H521l.41.42Z" transform="translate(-39.58 -39.36)"/><path d="M543.65,114.09l-.42.42h-1.68l-.42-.42v-12.6a6.84,6.84,0,0,0-1.44-4.71,5.18,5.18,0,0,0-4-1.59,6.22,6.22,0,0,0-5,2,8.4,8.4,0,0,0-1.68,5.57v11.34l-.42.42h-1.68l-.42-.42V93.93l.42-.42h1.26l.42.42.42,2.52h.42A6.22,6.22,0,0,1,532.1,94a9,9,0,0,1,4-.88,7.2,7.2,0,0,1,5.55,2.18,8.86,8.86,0,0,1,2,6.22Z" transform="translate(-39.58 -39.36)"/><path d="M563,111.57h-.42a5.72,5.72,0,0,1-2.41,2.39,8.67,8.67,0,0,1-4.31,1,7.7,7.7,0,0,1-6.55-3A12.8,12.8,0,0,1,547,104a12.81,12.81,0,0,1,2.27-7.92,7.72,7.72,0,0,1,6.55-3,8.67,8.67,0,0,1,4.31,1,5.79,5.79,0,0,1,2.41,2.4H563l.42-2.52.42-.42h1.26l.42.42v17.64q0,11.76-8.82,11.76a8.75,8.75,0,0,1-5.62-1.62,6.28,6.28,0,0,1-2.36-4.26l.42-.42h1.68l.42.42q.76,3.78,5.46,3.78c2.36,0,4-.85,4.92-2.54A15.12,15.12,0,0,0,563,111.57Zm-11.67-1a6.58,6.58,0,0,0,9.91,0c1.18-1.5,1.76-3.69,1.76-6.57s-.58-5.08-1.76-6.58a6.6,6.6,0,0,0-9.91,0q-1.77,2.25-1.77,6.58T551.3,110.58Z" transform="translate(-39.58 -39.36)"/><path d="M606.23,112.83v1.26l-.42.42H605l-.84-.42-2.94-2.94h-.42q-3.78,3.78-10.08,3.78a9.81,9.81,0,0,1-7-2.5,8.34,8.34,0,0,1-2.65-6.32q0-6,6.3-8.4v-.42a8.83,8.83,0,0,1-2.94-6.3A6.53,6.53,0,0,1,586,86.56q1.62-1.87,5.1-1.87a5.93,5.93,0,0,1,4.73,1.82,6.07,6.07,0,0,1,1.57,4.06,8.56,8.56,0,0,1-.46,2.92,5.73,5.73,0,0,1-1.36,2.16A11.67,11.67,0,0,1,593.91,97a21.13,21.13,0,0,1-2,1.09v.42l8.4,8.4h.42q1.26-2.52,1.26-8.4l.42-.42h1.68l.42.42q0,6.58-2.1,10.08v.42Zm-7.14-3.36v-.42l-9.66-9.66H589q-5.46,1.8-5.46,6.72a6.54,6.54,0,0,0,1.89,4.83,7.1,7.1,0,0,0,5.25,1.89Q596.41,112.83,599.09,109.47ZM594.89,91a4.93,4.93,0,0,0-.88-3,3.38,3.38,0,0,0-2.9-1.19q-4.2,0-4.2,4.2a5.35,5.35,0,0,0,.65,2.66,14.6,14.6,0,0,0,2.29,2.8h.84a11,11,0,0,0,3.18-2.25A4.68,4.68,0,0,0,594.89,91Z" transform="translate(-39.58 -39.36)"/><path d="M632.69,114.93a13.64,13.64,0,0,1-5.12-1,12.79,12.79,0,0,1-4.26-2.79,12.63,12.63,0,0,1-3-4.77,20.32,20.32,0,0,1,0-13.19,12.51,12.51,0,0,1,3-4.76,13,13,0,0,1,4.26-2.8,13.63,13.63,0,0,1,5.12-1A12.46,12.46,0,0,1,640.34,87,9.46,9.46,0,0,1,644,93.51l-.42.42h-1.68l-.42-.42a8.06,8.06,0,0,0-2.87-5,9.4,9.4,0,0,0-5.95-1.76,10,10,0,0,0-7.89,3.44q-3,3.45-3,9.58t3,9.57a10,10,0,0,0,7.89,3.45q7.53,0,8.82-7.14l.42-.42h1.68l.42.42a9.83,9.83,0,0,1-3.65,6.91A12.36,12.36,0,0,1,632.69,114.93Z" transform="translate(-39.58 -39.36)"/><path d="M663.58,112.05a9.83,9.83,0,0,1-13.9,0c-1.8-1.92-2.71-4.6-2.71-8s.91-6.13,2.71-8.05a9.85,9.85,0,0,1,13.9,0q2.71,2.88,2.71,8.05T663.58,112.05ZM661.8,97.58a6.78,6.78,0,0,0-10.33,0,11.41,11.41,0,0,0,0,12.85,6.76,6.76,0,0,0,10.33,0,11.46,11.46,0,0,0,0-12.85Z" transform="translate(-39.58 -39.36)"/><path d="M685.61,101.49v12.6l-.42.42h-1.68l-.42-.42V100.23q0-5-4.62-5-5.88,0-5.88,6.3v12.6l-.42.42h-1.68l-.42-.42V93.93l.42-.42h1.26l.42.42.42,2.1H673a5,5,0,0,1,2.21-2.12,7.65,7.65,0,0,1,3.67-.82,6,6,0,0,1,5.88,3.36h.42a6.83,6.83,0,0,1,6.3-3.36,6.43,6.43,0,0,1,7.14,7.14v13.86l-.42.42h-1.68l-.42-.42V100.23q0-5-4.62-5Q685.61,95.19,685.61,101.49Z" transform="translate(-39.58 -39.36)"/><path d="M718.79,101.49v12.6l-.42.42h-1.68l-.42-.42V100.23q0-5-4.62-5-5.88,0-5.88,6.3v12.6l-.42.42h-1.68l-.42-.42V93.93l.42-.42h1.26l.42.42.42,2.1h.42a5,5,0,0,1,2.21-2.12,7.62,7.62,0,0,1,3.67-.82A6,6,0,0,1,718,96.45h.42a6.83,6.83,0,0,1,6.3-3.36,6.43,6.43,0,0,1,7.14,7.14v13.86l-.42.42h-1.68l-.42-.42V100.23q0-5-4.62-5Q718.79,95.19,718.79,101.49Z" transform="translate(-39.58 -39.36)"/><path d="M736,93.93l.42-.42h1.68l.42.42v13a6.3,6.3,0,0,0,1.35,4.45,4.81,4.81,0,0,0,3.69,1.43,6.22,6.22,0,0,0,5-2,8.37,8.37,0,0,0,1.68-5.56V93.93l.42-.42h1.68l.42.42v20.16l-.42.42h-1.26l-.42-.42-.42-2.52h-.42a6.17,6.17,0,0,1-2.73,2.48,9.05,9.05,0,0,1-4,.88,6.87,6.87,0,0,1-5.21-2c-1.28-1.34-1.93-3.33-1.93-6Z" transform="translate(-39.58 -39.36)"/><path d="M775.07,114.09l-.42.42H773l-.42-.42v-12.6a6.79,6.79,0,0,0-1.45-4.71,5.14,5.14,0,0,0-4-1.59,6.22,6.22,0,0,0-5,2,8.4,8.4,0,0,0-1.68,5.57v11.34l-.42.42h-1.68l-.42-.42V93.93l.42-.42h1.26l.42.42.42,2.52h.42A6.22,6.22,0,0,1,763.52,94a9,9,0,0,1,4-.88,7.22,7.22,0,0,1,5.55,2.18,8.86,8.86,0,0,1,2,6.22Z" transform="translate(-39.58 -39.36)"/><path d="M782.21,89.73l-.42.42h-1.68l-.42-.42V87.21l.42-.42h1.68l.42.42Zm0,24.36-.42.42h-1.68l-.42-.42V93.93l.42-.42h1.68l.42.42Z" transform="translate(-39.58 -39.36)"/><path d="M790.44,97.46c-1.28,1.51-1.93,3.69-1.93,6.55s.65,5,1.93,6.55a6.51,6.51,0,0,0,5.21,2.27,6.21,6.21,0,0,0,4.41-1.43,6.28,6.28,0,0,0,1.89-3.61l.42-.42h1.68l.42.42a7.44,7.44,0,0,1-2.71,5.16,9.21,9.21,0,0,1-6.11,2,9.32,9.32,0,0,1-7-2.75Q786,109.42,786,104t2.67-8.17a10.35,10.35,0,0,1,13.1-.78,7.48,7.48,0,0,1,2.71,5.17l-.42.42h-1.68l-.42-.42a6.25,6.25,0,0,0-1.89-3.61,6.16,6.16,0,0,0-4.41-1.43A6.48,6.48,0,0,0,790.44,97.46Z" transform="translate(-39.58 -39.36)"/><path d="M823.79,114.09l-.42.42h-1.26l-.42-.42-.42-2.1h-.42q-2,2.94-6.72,2.94a7.57,7.57,0,0,1-5.27-1.7,5.91,5.91,0,0,1-1.87-4.6,5.8,5.8,0,0,1,2.31-5.06,11,11,0,0,1,6.51-1.66c.76,0,1.56,0,2.4.1s1.49.15,2,.23l.67.09.42-.42v-1.26q0-2.94-1.2-4.2t-4.26-1.26a6.07,6.07,0,0,0-4.18,1.19,4,4,0,0,0-1.28,3l-.42.42h-1.68l-.42-.42a5.78,5.78,0,0,1,2-4.5,8.72,8.72,0,0,1,5.94-1.8c3,0,5,.63,6.22,1.91a8.09,8.09,0,0,1,1.76,5.65Zm-2.52-7.56v-1.68l-.42-.42a23.6,23.6,0,0,0-4.62-.42q-3.65,0-5.18,1.15a4.06,4.06,0,0,0-1.54,3.47q0,4.2,5,4.2a6.26,6.26,0,0,0,6.72-6.3Z" transform="translate(-39.58 -39.36)"/><path d="M838.91,114.09l-.42.42h-2.94a5.29,5.29,0,0,1-3.65-1.24,4.3,4.3,0,0,1-1.39-3.38V96l-.42-.42h-3.36l-.42-.42V93.93l.42-.42h3.36l.42-.42V89.31l.42-.42h1.68l.42.42v3.78l.42.42h5l.42.42v1.26l-.42.42h-5L833,96v13.86a2.23,2.23,0,0,0,2.52,2.52h2.94l.42.42Z" transform="translate(-39.58 -39.36)"/><path d="M845.63,89.73l-.42.42h-1.68l-.42-.42V87.21l.42-.42h1.68l.42.42Zm0,24.36-.42.42h-1.68l-.42-.42V93.93l.42-.42h1.68l.42.42Z" transform="translate(-39.58 -39.36)"/><path d="M866,112.05a9.83,9.83,0,0,1-13.9,0q-2.72-2.88-2.71-8T852.12,96A9.85,9.85,0,0,1,866,96q2.72,2.88,2.71,8.05T866,112.05Zm-1.78-14.47a6.79,6.79,0,0,0-10.34,0,11.46,11.46,0,0,0,0,12.85,6.77,6.77,0,0,0,10.34,0,11.46,11.46,0,0,0,0-12.85Z" transform="translate(-39.58 -39.36)"/><path d="M889.73,114.09l-.42.42h-1.68l-.42-.42v-12.6a6.79,6.79,0,0,0-1.45-4.71,5.14,5.14,0,0,0-4-1.59,6.22,6.22,0,0,0-5,2,8.4,8.4,0,0,0-1.68,5.57v11.34l-.42.42h-1.68l-.42-.42V93.93l.42-.42h1.26l.42.42.42,2.52h.42A6.22,6.22,0,0,1,878.18,94a8.92,8.92,0,0,1,4-.88,7.18,7.18,0,0,1,5.54,2.18,8.82,8.82,0,0,1,2,6.22Z" transform="translate(-39.58 -39.36)"/><path d="M909.05,109.05a5.19,5.19,0,0,1-2,4.26q-2,1.62-6,1.62a8.53,8.53,0,0,1-5.84-1.89,6.15,6.15,0,0,1-2.14-4.83l.42-.42h1.68l.42.42a4.31,4.31,0,0,0,1.39,3.31,5.72,5.72,0,0,0,4.07,1.31q5.46,0,5.46-3.78a5,5,0,0,0-.34-2,2.65,2.65,0,0,0-1.3-1.28,8.53,8.53,0,0,0-1.82-.73c-.58-.16-1.52-.36-2.84-.61a11.68,11.68,0,0,1-5-2.06,4.67,4.67,0,0,1-1.7-3.82,4.87,4.87,0,0,1,1.91-3.89,8,8,0,0,1,5.23-1.57,9.35,9.35,0,0,1,5.48,1.45A5,5,0,0,1,908.21,99l-.42.42h-1.68l-.42-.42q0-3.78-5-3.78a5.68,5.68,0,0,0-3.4.88A2.89,2.89,0,0,0,896,98.55a3,3,0,0,0,.36,1.51,3,3,0,0,0,2.24,1.7c.76.24,1.35.41,1.77.5s1.2.26,2.35.49a9.85,9.85,0,0,1,4.79,2.1A5.49,5.49,0,0,1,909.05,109.05Z" transform="translate(-39.58 -39.36)"/><path d="M397.5,151a8.12,8.12,0,0,1-.49,2.87,7.31,7.31,0,0,1-1.59,2.52,7.46,7.46,0,0,1-3.26,1.89,16.64,16.64,0,0,1-5.16.7q-5.08,0-8-2.44a8.35,8.35,0,0,1-2.92-6.8l.42-.42h1.68l.42.42q0,7.14,8.82,7.14a8.55,8.55,0,0,0,5.6-1.62,5.25,5.25,0,0,0,2-4.26,4.6,4.6,0,0,0-1.91-4,23.59,23.59,0,0,0-6.91-2.69,18.22,18.22,0,0,1-7.08-3.17,6.55,6.55,0,0,1-2.16-5.23,6.89,6.89,0,0,1,.42-2.4,7.53,7.53,0,0,1,1.4-2.26,6.68,6.68,0,0,1,3-1.81,15.26,15.26,0,0,1,4.83-.67,12.2,12.2,0,0,1,7.3,2q2.78,2,2.78,6.41l-.42.42h-1.68l-.42-.42q0-6.3-7.56-6.3-7.14,0-7.14,5a4.59,4.59,0,0,0,1.91,4,23.63,23.63,0,0,0,6.91,2.69q5,1.33,7.14,3.06T397.5,151Z" transform="translate(-39.58 -39.36)"/><path d="M418.5,148.85H403.38l-.42.42a7.77,7.77,0,0,0,.37,2.27,11,11,0,0,0,1.14,2.45,5.65,5.65,0,0,0,2.22,2,7.07,7.07,0,0,0,3.41.8,5.66,5.66,0,0,0,5.88-4.2l.42-.42h1.68l.42.42a7.16,7.16,0,0,1-.68,2.05,8.23,8.23,0,0,1-1.44,2,6.75,6.75,0,0,1-2.57,1.62,10.57,10.57,0,0,1-3.71.61c-3.2,0-5.6-1-7.23-3.09a12.28,12.28,0,0,1-2.43-7.83v-.84a10.66,10.66,0,0,1,2.45-7.29,9.65,9.65,0,0,1,13.57,0,10.62,10.62,0,0,1,2.46,7.29v1.26Zm-2.52-2.1.42-.42a8.11,8.11,0,0,0-1.66-4.92,6.88,6.88,0,0,0-10.12,0,8,8,0,0,0-1.66,4.92l.42.42Z" transform="translate(-39.58 -39.36)"/><path d="M431.52,137.51h1.68l.42.42v1.26l-.42.42h-2.1a5.2,5.2,0,0,0-4.46,1.91,8.57,8.57,0,0,0-1.42,5.23v11.34l-.42.42h-1.68l-.42-.42V137.93l.42-.42h1.26l.42.42.42,2.52h.42Q427.4,137.51,431.52,137.51Z" transform="translate(-39.58 -39.36)"/><path d="M454.62,139.19l-8,18.9-.42.42h-2.1l-.42-.42-8-18.9v-1.26l.42-.42h1.26l.42.42L445,155.57h.42l7.14-17.64.42-.42h1.26l.42.42Z" transform="translate(-39.58 -39.36)"/><path d="M460.92,133.73l-.42.42h-1.68l-.42-.42v-2.52l.42-.42h1.68l.42.42Zm0,24.36-.42.42h-1.68l-.42-.42V137.93l.42-.42h1.68l.42.42Z" transform="translate(-39.58 -39.36)"/><path d="M469.15,141.46q-1.93,2.26-1.93,6.55c0,2.85.64,5,1.93,6.55a6.5,6.5,0,0,0,5.21,2.27,6.21,6.21,0,0,0,4.41-1.43,6.4,6.4,0,0,0,1.89-3.61l.42-.42h1.68l.42.42a7.48,7.48,0,0,1-2.71,5.16,10.34,10.34,0,0,1-13.11-.77c-1.78-1.84-2.66-4.56-2.66-8.17s.88-6.34,2.66-8.17a10.36,10.36,0,0,1,13.11-.78,7.52,7.52,0,0,1,2.71,5.17l-.42.42h-1.68l-.42-.42a6.37,6.37,0,0,0-1.89-3.61,6.16,6.16,0,0,0-4.41-1.43A6.47,6.47,0,0,0,469.15,141.46Z" transform="translate(-39.58 -39.36)"/><path d="M503.76,148.85H488.64l-.42.42a7.77,7.77,0,0,0,.37,2.27,11,11,0,0,0,1.14,2.45,5.65,5.65,0,0,0,2.22,2,7.07,7.07,0,0,0,3.41.8,5.66,5.66,0,0,0,5.88-4.2l.42-.42h1.68l.42.42a7.16,7.16,0,0,1-.68,2.05,8.23,8.23,0,0,1-1.44,2,6.83,6.83,0,0,1-2.57,1.62,10.61,10.61,0,0,1-3.71.61c-3.2,0-5.6-1-7.23-3.09A12.28,12.28,0,0,1,485.7,148v-.84a10.66,10.66,0,0,1,2.45-7.29,9.65,9.65,0,0,1,13.57,0,10.62,10.62,0,0,1,2.46,7.29v1.26Zm-2.52-2.1.42-.42a8.11,8.11,0,0,0-1.66-4.92,6.89,6.89,0,0,0-10.13,0,8.1,8.1,0,0,0-1.65,4.92l.42.42Z" transform="translate(-39.58 -39.36)"/><path d="M522.66,153.05a5.21,5.21,0,0,1-2,4.26q-2,1.62-6,1.62a8.51,8.51,0,0,1-5.84-1.89,6.15,6.15,0,0,1-2.14-4.83l.42-.42h1.68l.42.42a4.34,4.34,0,0,0,1.38,3.31,5.75,5.75,0,0,0,4.08,1.31q5.46,0,5.46-3.78a5.17,5.17,0,0,0-.34-2,2.69,2.69,0,0,0-1.3-1.28,8.81,8.81,0,0,0-1.83-.73c-.57-.16-1.52-.36-2.83-.61a11.58,11.58,0,0,1-5-2.06,4.64,4.64,0,0,1-1.7-3.82,4.84,4.84,0,0,1,1.91-3.89,8,8,0,0,1,5.23-1.57,9.39,9.39,0,0,1,5.48,1.45,5,5,0,0,1,2.08,4.43l-.42.42h-1.68l-.42-.42q0-3.78-5-3.78a5.74,5.74,0,0,0-3.41.88,2.88,2.88,0,0,0-1.21,2.48,3,3,0,0,0,.35,1.51,4.39,4.39,0,0,0,.74,1,4.31,4.31,0,0,0,1.51.71c.76.24,1.34.41,1.76.5s1.21.26,2.36.49a9.77,9.77,0,0,1,4.78,2.1A5.5,5.5,0,0,1,522.66,153.05Z" transform="translate(-39.58 -39.36)"/><path d="M400.47,54.41a23.79,23.79,0,0,1-.78,6.37,11.51,11.51,0,0,1-2.51,4.73,11,11,0,0,1-4.52,2.94,19.88,19.88,0,0,1-6.81,1h-9.46L376,69V39.79l.43-.43h9.46a19.84,19.84,0,0,1,6.81,1,11.23,11.23,0,0,1,4.52,3,11.51,11.51,0,0,1,2.51,4.73A23.57,23.57,0,0,1,400.47,54.41Zm-6,0q0-5.16-1.83-7.52t-6.34-2.37h-3.87L382,45V63.87l.43.43h3.87q4.52,0,6.34-2.36T394.45,54.41Z" transform="translate(-39.58 -39.36)"/><path d="M410.36,44.52H405.2l-.43-.43v-4.3l.43-.43h5.16l.43.43v4.3Zm0,24.94H405.2l-.43-.43V48.39l.43-.43h5.16l.43.43V69Z" transform="translate(-39.58 -39.36)"/><path d="M436.16,67.31a13.55,13.55,0,0,1-.84,5A9.54,9.54,0,0,1,433,75.81a9.32,9.32,0,0,1-3.42,2,13.21,13.21,0,0,1-4.21.66,10.45,10.45,0,0,1-6.3-1.74A6.49,6.49,0,0,1,416.38,72l.43-.43H422l.43.43a2.16,2.16,0,0,0,1,1,4.74,4.74,0,0,0,2,.32A4.52,4.52,0,0,0,428.93,72a6.24,6.24,0,0,0,1.21-4.28h-.43c-.21.2-.41.4-.63.58a4.1,4.1,0,0,1-.71.5,7.5,7.5,0,0,1-1.74.75,8.8,8.8,0,0,1-2.51.32,8.93,8.93,0,0,1-3.66-.77,8.76,8.76,0,0,1-3-2.24,10.86,10.86,0,0,1-2-3.52,14.76,14.76,0,0,1,0-9.29,10.91,10.91,0,0,1,2-3.53,8.82,8.82,0,0,1,6.67-3,8.09,8.09,0,0,1,2.51.35,9.8,9.8,0,0,1,1.74.73,4.06,4.06,0,0,1,.71.49c.22.19.42.38.63.58h.43l.43-1.29L431,48h4.73l.43.43Zm-15.48-8.6a7.93,7.93,0,0,0,1.07,4.3,4.74,4.74,0,0,0,7.31,0,9.1,9.1,0,0,0,0-8.6,4.74,4.74,0,0,0-7.31,0A8,8,0,0,0,420.68,58.71Z" transform="translate(-39.58 -39.36)"/><path d="M446.91,44.52h-5.16l-.43-.43v-4.3l.43-.43h5.16l.43.43v4.3Zm0,24.94h-5.16l-.43-.43V48.39l.43-.43h5.16l.43.43V69Z" transform="translate(-39.58 -39.36)"/><path d="M460.67,63A1.14,1.14,0,0,0,462,64.3h3.87l.42.43V69l-.42.43H462a10.92,10.92,0,0,1-2.78-.34A6.42,6.42,0,0,1,456.86,68a5.5,5.5,0,0,1-1.61-2,6.75,6.75,0,0,1-.6-3V53.55l-.44-.43h-3l-.44-.43v-4.3l.44-.43h3l.44-.43V43.66l.43-.43h5.15l.44.43v3.87l.43.43h4.73l.42.43v4.3l-.42.43H461.1l-.43.43Z" transform="translate(-39.58 -39.36)"/><path d="M487.33,69.46H482.6l-.43-.43-.43-.86h-.43a8.11,8.11,0,0,1-1.25.86,7.16,7.16,0,0,1-3.48.86,8.32,8.32,0,0,1-5.68-1.82A6.4,6.4,0,0,1,468.84,63a6.7,6.7,0,0,1,1-3.85A6.84,6.84,0,0,1,472.28,57a9.35,9.35,0,0,1,3.09-1,20.42,20.42,0,0,1,2.93-.24,9.41,9.41,0,0,1,2.15.22l.86.21.43-.43v-.43a6.52,6.52,0,0,0-.11-1.31,1.36,1.36,0,0,0-.43-.77,1.9,1.9,0,0,0-.93-.39,9.12,9.12,0,0,0-1.54-.11h-.26a7.77,7.77,0,0,0-1.66.17A1.56,1.56,0,0,0,475.72,54l-.43.43h-5.16L469.7,54a5.71,5.71,0,0,1,.45-2.08,5.85,5.85,0,0,1,1.48-2.11,8.23,8.23,0,0,1,2.77-1.61,14.71,14.71,0,0,1,8.65,0,6.4,6.4,0,0,1,2.77,1.89,7.53,7.53,0,0,1,1.48,3.1,18,18,0,0,1,.46,4.25V69Zm-6-9-.65-.21a6.43,6.43,0,0,0-.82-.15,7.14,7.14,0,0,0-1.11-.07q-3.87,0-3.87,2.58a1.93,1.93,0,0,0,.68,1.57,3.63,3.63,0,0,0,2.33.58,4.36,4.36,0,0,0,2.75-.86,2.63,2.63,0,0,0,1.12-2.15v-.86Z" transform="translate(-39.58 -39.36)"/><path d="M498.07,69.46h-5.16l-.43-.43V39.79l.43-.43h5.16l.43.43V69Z" transform="translate(-39.58 -39.36)"/><path d="M547.52,69.46h-5.16l-.43-.43V52.26h-.43L534.62,69l-.43.43h-4.73L529,69l-6.88-16.77h-.43V69l-.43.43h-5.16L515.7,69V39.79l.43-.43h6.45l.43.43,8.6,21.07H532l8.6-21.07.43-.43h6.45l.43.43V69Z" transform="translate(-39.58 -39.36)"/><path d="M573.32,60.43l-.43.43H559.56l-.43.43a3,3,0,0,0,.2.91,3.81,3.81,0,0,0,.66,1.13,3.87,3.87,0,0,0,1.31,1,4.76,4.76,0,0,0,2.13.41,5.17,5.17,0,0,0,1.83-.32,2.15,2.15,0,0,0,1.18-1l.43-.43H572l.43.43a8.58,8.58,0,0,1-.68,2.11,6.76,6.76,0,0,1-1.57,2.09,8.77,8.77,0,0,1-2.71,1.61,11.29,11.29,0,0,1-4.07.64,11.67,11.67,0,0,1-4.77-.9,9.38,9.38,0,0,1-3.35-2.43,9.9,9.9,0,0,1-2-3.55,14,14,0,0,1-.65-4.3,14.18,14.18,0,0,1,.65-4.28,10.27,10.27,0,0,1,1.93-3.57,9.37,9.37,0,0,1,3.23-2.42,11.66,11.66,0,0,1,9,0,9.33,9.33,0,0,1,3.22,2.42,10.29,10.29,0,0,1,1.94,3.57,14.17,14.17,0,0,1,.64,4.28Zm-6.45-4.3a4,4,0,0,0-.13-.73,3.48,3.48,0,0,0-1.67-2.23,4.68,4.68,0,0,0-4.13,0,3.46,3.46,0,0,0-1.16,1.07,3.79,3.79,0,0,0-.52,1.16,5.12,5.12,0,0,0-.13.73l.43.43h6.88Z" transform="translate(-39.58 -39.36)"/><path d="M575.9,58.71a13.24,13.24,0,0,1,.76-4.64,10.91,10.91,0,0,1,2-3.53,8.82,8.82,0,0,1,6.66-3,8.11,8.11,0,0,1,2.52.35,9.8,9.8,0,0,1,1.74.73,4.06,4.06,0,0,1,.71.49c.21.19.42.38.62.58h.43V39.79l.43-.43H597l.43.43V69l-.43.43h-4.73l-.43-.43-.43-1.29H591c-.2.2-.41.4-.62.58a4.1,4.1,0,0,1-.71.5,7.5,7.5,0,0,1-1.74.75,8.91,8.91,0,0,1-9.18-2.69,10.86,10.86,0,0,1-2-3.52A13.34,13.34,0,0,1,575.9,58.71Zm6,0A7.93,7.93,0,0,0,583,63a4.74,4.74,0,0,0,7.31,0,9.18,9.18,0,0,0,0-8.6,4.74,4.74,0,0,0-7.31,0A8,8,0,0,0,581.92,58.71Z" transform="translate(-39.58 -39.36)"/><path d="M608.15,44.52H603l-.43-.43v-4.3l.43-.43h5.16l.43.43v4.3Zm0,24.94H603l-.43-.43V48.39L603,48h5.16l.43.43V69Z" transform="translate(-39.58 -39.36)"/><path d="M630.94,69.46h-4.73l-.43-.43-.43-.86h-.43a8,8,0,0,1-1.24.86,7,7,0,0,1-1.49.6,6.83,6.83,0,0,1-2,.26,8.29,8.29,0,0,1-5.67-1.82A6.41,6.41,0,0,1,612.45,63a6.7,6.7,0,0,1,1-3.85A6.89,6.89,0,0,1,615.89,57a9.49,9.49,0,0,1,3.1-1,20.3,20.3,0,0,1,2.92-.24,9.35,9.35,0,0,1,2.15.22l.86.21.43-.43v-.43a6.63,6.63,0,0,0-.1-1.31,1.42,1.42,0,0,0-.43-.77,1.9,1.9,0,0,0-.93-.39,9.25,9.25,0,0,0-1.55-.11h-.26a7.67,7.67,0,0,0-1.65.17,1.59,1.59,0,0,0-1.1,1.12l-.43.43h-5.16l-.43-.43a5.71,5.71,0,0,1,.45-2.08,6,6,0,0,1,1.49-2.11A8.23,8.23,0,0,1,618,48.18a14.71,14.71,0,0,1,8.65,0,6.4,6.4,0,0,1,2.77,1.89,7.53,7.53,0,0,1,1.48,3.1,18.05,18.05,0,0,1,.45,4.25V69Zm-6-9-.64-.21a6.43,6.43,0,0,0-.82-.15,7.28,7.28,0,0,0-1.12-.07q-3.87,0-3.87,2.58a1.94,1.94,0,0,0,.69,1.57,3.6,3.6,0,0,0,2.32.58,4.37,4.37,0,0,0,2.76-.86,2.62,2.62,0,0,0,1.11-2.15v-.86Z" transform="translate(-39.58 -39.36)"/><path d="M673.08,48.39a9.48,9.48,0,0,1-.77,4,8,8,0,0,1-2.13,2.81,8.77,8.77,0,0,1-3.27,1.7,14.46,14.46,0,0,1-4.15.56h-8.17l-.43.43V69l-.43.43h-5.16l-.43-.43V39.79l.43-.43h14.19a14.82,14.82,0,0,1,4.15.56,8.77,8.77,0,0,1,3.27,1.7,8.08,8.08,0,0,1,2.13,2.84A9.47,9.47,0,0,1,673.08,48.39Zm-6,0a3.45,3.45,0,0,0-1.18-3,5.43,5.43,0,0,0-3.12-.82h-8.17l-.43.43v6.88l.43.43h8.17a7.9,7.9,0,0,0,1.74-.17,3.35,3.35,0,0,0,1.38-.62,2.74,2.74,0,0,0,.88-1.21A5.05,5.05,0,0,0,667.06,48.39Z" transform="translate(-39.58 -39.36)"/><path d="M690.28,53.12h-3a4.48,4.48,0,0,0-3.65,1.31,6.77,6.77,0,0,0-1.08,4.28V69l-.43.43H677l-.43-.43V48.39L677,48h4.73l.43.43.43,1.29H683a3.91,3.91,0,0,1,.9-.86,5.19,5.19,0,0,1,1.44-.6A9.25,9.25,0,0,1,687.7,48h2.58l.43.43v4.3Z" transform="translate(-39.58 -39.36)"/><path d="M713.07,58.71a13.34,13.34,0,0,1-.77,4.65,10.06,10.06,0,0,1-2.2,3.52,9.39,9.39,0,0,1-3.39,2.24,12.87,12.87,0,0,1-8.77,0,9.43,9.43,0,0,1-3.4-2.24,9.9,9.9,0,0,1-2.19-3.52,14.22,14.22,0,0,1,0-9.29,9.94,9.94,0,0,1,2.19-3.53,9.4,9.4,0,0,1,3.4-2.23,12.72,12.72,0,0,1,8.77,0,9.36,9.36,0,0,1,3.39,2.23,10.11,10.11,0,0,1,2.2,3.53A13.24,13.24,0,0,1,713.07,58.71Zm-6,0a7.17,7.17,0,0,0-1.2-4.49,4.84,4.84,0,0,0-7.06,0,7.17,7.17,0,0,0-1.2,4.49,7.19,7.19,0,0,0,1.2,4.5,4.86,4.86,0,0,0,7.06,0A7.19,7.19,0,0,0,707.05,58.71Z" transform="translate(-39.58 -39.36)"/><path d="M723,70.32a9.84,9.84,0,0,1-.47,3.25,5.15,5.15,0,0,1-1.4,2.13,5.44,5.44,0,0,1-2.3,1.16,13,13,0,0,1-3.14.34h-2.58l-.43-.43v-4.3l.43-.43h2.15a1.4,1.4,0,0,0,1.72-1.72V48.39l.43-.43h5.16l.43.43Zm-.43-25.8h-5.16l-.43-.43v-4.3l.43-.43h5.16l.43.43v4.3Z" transform="translate(-39.58 -39.36)"/><path d="M747.47,60.43l-.43.43H733.71l-.43.43a3.27,3.27,0,0,0,.19.91,3.86,3.86,0,0,0,.67,1.13,3.77,3.77,0,0,0,1.31,1,4.76,4.76,0,0,0,2.13.41,5.17,5.17,0,0,0,1.83-.32,2.15,2.15,0,0,0,1.18-1L741,63h5.16l.43.43a8.22,8.22,0,0,1-.69,2.11,6.46,6.46,0,0,1-1.57,2.09,8.54,8.54,0,0,1-2.71,1.61,11.19,11.19,0,0,1-4.06.64,11.67,11.67,0,0,1-4.77-.9,9.51,9.51,0,0,1-3.36-2.43,10,10,0,0,1-2-3.55,14,14,0,0,1-.65-4.3,14.18,14.18,0,0,1,.65-4.28,10.27,10.27,0,0,1,1.93-3.57,9.37,9.37,0,0,1,3.23-2.42,11.66,11.66,0,0,1,9,0,9.33,9.33,0,0,1,3.22,2.42,10.29,10.29,0,0,1,1.94,3.57,14.17,14.17,0,0,1,.64,4.28ZM741,56.13a4,4,0,0,0-.13-.73,3.74,3.74,0,0,0-.51-1.16,3.5,3.5,0,0,0-1.17-1.07,4.66,4.66,0,0,0-4.12,0,3.36,3.36,0,0,0-1.16,1.07,3.79,3.79,0,0,0-.52,1.16,4,4,0,0,0-.13.73l.43.43h6.88Z" transform="translate(-39.58 -39.36)"/><path d="M756.07,58.71a7.19,7.19,0,0,0,1.2,4.5,4.25,4.25,0,0,0,3.53,1.52,4.88,4.88,0,0,0,2.58-.58,2.92,2.92,0,0,0,1.29-1.57l.43-.43h5.16l.43.43a8.45,8.45,0,0,1-1.27,3.31,8.35,8.35,0,0,1-2.23,2.28,9,9,0,0,1-3,1.31,13.8,13.8,0,0,1-3.44.41,12,12,0,0,1-4.38-.77,9.43,9.43,0,0,1-3.4-2.24,9.9,9.9,0,0,1-2.19-3.52,14.22,14.22,0,0,1,0-9.29A9.94,9.94,0,0,1,753,50.54a9.4,9.4,0,0,1,3.4-2.23,11.82,11.82,0,0,1,4.38-.78,14.28,14.28,0,0,1,3.44.41,9,9,0,0,1,3,1.31,8.35,8.35,0,0,1,2.23,2.28,8.51,8.51,0,0,1,1.27,3.31l-.43.43H765.1l-.43-.43a3,3,0,0,0-1.29-1.57,5,5,0,0,0-2.58-.58,4.23,4.23,0,0,0-3.53,1.53A7.17,7.17,0,0,0,756.07,58.71Z" transform="translate(-39.58 -39.36)"/><path d="M782.3,63a1.14,1.14,0,0,0,1.29,1.29h3.87l.43.43V69l-.43.43h-3.87a10.84,10.84,0,0,1-2.77-.34A6.34,6.34,0,0,1,778.5,68a5.43,5.43,0,0,1-1.62-2,6.75,6.75,0,0,1-.6-3V53.55l-.43-.43h-3l-.43-.43v-4.3l.43-.43h3l.43-.43V43.66l.43-.43h5.16l.43.43v3.87l.43.43h4.73l.43.43v4.3l-.43.43h-4.73l-.43.43Z" transform="translate(-39.58 -39.36)"/><path d="M809.39,63a6.49,6.49,0,0,1-.52,2.54,5.76,5.76,0,0,1-1.63,2.21,8.07,8.07,0,0,1-2.92,1.55,14.42,14.42,0,0,1-4.39.58q-4.51,0-7-2a6.52,6.52,0,0,1-2.47-5.27l.43-.43h5.16l.43.43a1.71,1.71,0,0,0,.9,1.72,6,6,0,0,0,2.54.43,7.09,7.09,0,0,0,2.54-.36,1.36,1.36,0,0,0,.9-1.36,1.51,1.51,0,0,0-.32-1,2.12,2.12,0,0,0-.88-.56,7.09,7.09,0,0,0-1.36-.3c-.53-.07-1.11-.16-1.74-.28s-1.45-.29-2.39-.54A10.27,10.27,0,0,1,794,59.19a7.46,7.46,0,0,1-2.2-2,5.29,5.29,0,0,1-.9-3.18,6.21,6.21,0,0,1,.5-2.45A5.25,5.25,0,0,1,793,49.47a8,8,0,0,1,2.81-1.42,14.32,14.32,0,0,1,4.13-.52,15.05,15.05,0,0,1,3.59.41,8.85,8.85,0,0,1,2.86,1.21,5.8,5.8,0,0,1,1.89,2A5.6,5.6,0,0,1,809,54l-.43.43h-5.16l-.43-.43a1,1,0,0,0-.69-1,5.82,5.82,0,0,0-2.32-.33,5.35,5.35,0,0,0-2.32.37,1.38,1.38,0,0,0-.69,1.35,1.22,1.22,0,0,0,.45,1,3.06,3.06,0,0,0,1.16.56,11,11,0,0,0,1.64.3c.61.08,1.25.17,1.91.28s1.37.28,2.21.48a8.55,8.55,0,0,1,2.41,1,6,6,0,0,1,1.92,1.88A5.62,5.62,0,0,1,809.39,63Z" transform="translate(-39.58 -39.36)"/></g><g id="Ryerson"><rect class="cls-1" y="24.16" width="281.28" height="119.82"/><rect class="cls-2" x="257.34" y="0.22" width="39.58" height="119.82"/><path class="cls-3" d="M83.83,102.3a9.41,9.41,0,0,0,7.27-9.51c0-6.23-4.26-9.94-11.39-9.94H63.92l-.4.39V115.8l.4.39h5.64l.39-.39V103.19l.41-.46,5.22,0,.84.46,9.64,12.53.9.45h2.78l.4-.39v-4.7l-6.31-8.23Zm-4.12-5H70.34L70,96.89V88.72l.37-.41h9.39c3.43,0,5,1.39,5,4.48S83.14,97.27,79.71,97.27Z" transform="translate(-39.58 -39.36)"/><path class="cls-3" d="M98.17,125.64c6.86,0,8.65-4.43,10.43-8.87l7.68-19.2V92.85l-.39-.39h-4.2l-.42.41-5.86,16.62h-.56L99,92.87l-.41-.41H94.38l-.39.39v4.72l7.69,18.77v.53c-.45,1.74-1,3.39-3.5,3.31H95.34l-.4.39v4.68l.4.39Z" transform="translate(-39.58 -39.36)"/><path class="cls-3" d="M141,106.58l.39-.39v-1.86C141.34,95.21,135.21,92,130,92s-11.38,3.23-11.38,12.35c0,5.69,3.11,12.34,11.86,12.34,8,0,9.63-5.26,9.94-7l-.39-.38h-5.64l-.42.42c-.47.91-1.84,1.5-3.49,1.5-4.11,0-5-3.08-5-4.22l.37-.4Zm-15.47-4.88A4.22,4.22,0,0,1,130,97.45a4.27,4.27,0,0,1,4.48,4.24l-.37.38h-8.2Z" transform="translate(-39.58 -39.36)"/><path class="cls-3" d="M151.75,94.63l-.59-1.76-.41-.41h-5.17l-.39.39v23l.39.39h5.65l.39-.39V104.33c0-4.55,1.58-6.4,5.44-6.4h3.3l.39-.4V92.85l-.39-.39h-2.82c-4.41,0-5.34,2.15-5.35,2.17Z" transform="translate(-39.58 -39.36)"/><path class="cls-3" d="M175.49,102.07l-1.47-.22c-2.37-.32-4.43-.61-4.43-2.33s1.35-2.07,3.52-2.07c2.38,0,3.47.47,3.51,1.53l.4.39h5.64l.39-.39c0-4.32-3.84-7-9.94-7s-10,2.64-10,7.06c0,4,3,6.54,9,7.54l1.08.17c2.32.35,3.85.58,3.85,2.38s-2.28,2.07-4,2.07c-2.06,0-4-.3-4-2.49l-.39-.39h-5.64l-.4.39c0,4.91,4,8,10.43,8,5,0,10.42-2,10.42-7.54C183.53,103.41,178.1,102.51,175.49,102.07Z" transform="translate(-39.58 -39.36)"/><path class="cls-3" d="M198.12,92c-7.21,0-11.86,4.85-11.86,12.35s4.65,12.34,11.86,12.34S210,111.83,210,104.33,205.33,92,198.12,92Zm0,19.22c-3.45,0-5.43-2.5-5.43-6.87s2-6.88,5.43-6.88,5.44,2.5,5.44,6.88S201.58,111.2,198.12,111.2Z" transform="translate(-39.58 -39.36)"/><path class="cls-3" d="M230,116.19h5.64l.4-.39V101.44c0-5.84-3.44-9.46-9-9.46a8.44,8.44,0,0,0-6.35,2.59h-.43l-.56-1.7-.41-.41h-5.16l-.39.39v23l.39.39h5.64l.4-.39v-12c0-4.24,1.83-6.39,5.43-6.39,2.62,0,4,1.54,4,4.47V115.8Z" transform="translate(-39.58 -39.36)"/><path class="cls-3" d="M90.14,126.41l-.4-.39H84.1l-.39.39v20.13c0,5.2-2.32,7.84-6.88,7.84S70,151.74,70,146.54V126.41l-.39-.39H63.92l-.4.39v20.13c0,8.58,4.73,13.31,13.31,13.31s13.31-4.73,13.31-13.31Z" transform="translate(-39.58 -39.36)"/><polygon class="cls-3" points="82.83 86.66 82.44 87.05 82.44 91.73 82.83 92.13 88.47 92.13 88.87 91.73 88.87 87.05 88.47 86.66 82.83 86.66"/><polygon class="cls-3" points="88.47 120 88.87 119.61 88.87 96.66 88.47 96.27 82.83 96.27 82.44 96.66 82.44 119.61 82.83 120 88.47 120"/><polygon class="cls-3" points="110.42 96.27 110 96.68 104.1 111.91 103.62 111.91 97.73 96.68 97.31 96.27 93.11 96.27 92.72 96.66 92.72 101.38 100.87 119.58 101.28 120 106.45 120 106.86 119.58 115.01 101.38 115.01 96.66 114.62 96.27 110.42 96.27"/><path class="cls-3" d="M213.67,145.24l-1.46-.21c-2.38-.33-4.43-.61-4.43-2.34s1.34-2.07,3.51-2.07c2.39,0,3.47.47,3.52,1.53l.39.39h5.64l.4-.39c0-4.32-3.84-7-10-7s-9.94,2.64-9.94,7.06c0,4,3,6.55,9,7.54.37.07.74.12,1.08.17,2.32.35,3.85.59,3.85,2.38s-2.28,2.08-4,2.08c-2,0-4-.31-4-2.49l-.39-.4h-5.65l-.39.4c0,4.91,4,8,10.42,8,5,0,10.43-2,10.43-7.55C221.72,146.58,216.28,145.68,213.67,145.24Z" transform="translate(-39.58 -39.36)"/><polygon class="cls-3" points="192.03 120 192.42 119.61 192.42 96.66 192.03 96.27 186.38 96.27 185.99 96.66 185.99 119.61 186.38 120 192.03 120"/><polygon class="cls-3" points="186.38 86.66 185.99 87.05 185.99 91.73 186.38 92.13 192.03 92.13 192.42 91.73 192.42 87.05 192.03 86.66 186.38 86.66"/><path class="cls-3" d="M247.72,159.36H252l.39-.39v-4.68l-.39-.39h-4.27a1.42,1.42,0,0,1-1.59-1.6V141.49l.39-.39H252l.39-.39V136l-.39-.4h-5.48l-.38-.38v-4.51l-.39-.39h-5.65l-.39.39v4.51l-.4.38h-3.53l-.4.4v4.68l.4.39h3.55l.38.39V152.3C239.7,158.68,245.31,159.36,247.72,159.36Z" transform="translate(-39.58 -39.36)"/><path class="cls-3" d="M111.17,159.36h5.64l.39-.39V144.61c0-5.83-3.44-9.46-9-9.46a8.43,8.43,0,0,0-6.35,2.59h-.44l-.55-1.7-.41-.41H95.31l-.4.4V159l.4.39H101l.39-.39V147c0-4.25,1.83-6.4,5.44-6.4,2.61,0,4,1.55,4,4.48V159Z" transform="translate(-39.58 -39.36)"/><path class="cls-3" d="M179.13,149.75l.39-.39V147.5c0-9.11-6.13-12.35-11.38-12.35s-11.39,3.24-11.39,12.35c0,5.69,3.11,12.35,11.87,12.35,8,0,9.62-5.27,9.93-7l-.38-.39h-5.64l-.42.42c-.48.92-1.84,1.51-3.49,1.51-4.12,0-5-3.09-5-4.23l.37-.4Zm-15.47-4.87a4.48,4.48,0,0,1,9,0l-.36.39h-8.2Z" transform="translate(-39.58 -39.36)"/><path class="cls-3" d="M189.94,137.81l-.6-1.77-.41-.41h-5.16l-.39.4V159l.39.39h5.64l.4-.39V147.5c0-4.55,1.57-6.4,5.43-6.4h3.31l.39-.39V136l-.39-.4h-2.83c-4.41,0-5.34,2.16-5.35,2.18Z" transform="translate(-39.58 -39.36)"/><path class="cls-3" d="M259.47,168.82c6.86,0,8.65-4.43,10.43-8.88l7.68-19.2V136l-.39-.4H273l-.42.42-5.86,16.61h-.57l-5.84-16.61-.41-.42h-4.21l-.39.4v4.71L263,159.51V160c-.55,1.76-1.26,3.31-3.5,3.31h-2.35l-.39.39v4.68l.39.4Z" transform="translate(-39.58 -39.36)"/></g></svg>