<svg xmlns="http://www.w3.org/2000/svg" xmlns:xlink="http://www.w3.org/1999/xlink" viewBox="0 0 6353.28 4121.54"><defs><style>.a2217882-0ee9-4450-a499-57e4661473c6{fill:#e7f7ff;}.ae8ad1d1-8ad7-4271-8dce-8e98dae64edb{fill:#f7ceaa;}.ebb0781d-a3b0-455c-88f6-e29dbf73f0aa{fill:#68bc6a;}.b9f792fd-90a7-4da0-bbc9-68a752696e7f{fill:#60b4e2;}.f23451c2-4d7d-40ba-97c3-fe88532f4ab7{fill:#dbdbdb;}.b5ba0554-9e90-4fec-9b05-8faea308f729{fill:#a8805d;}.a3a4b615-b69e-47e5-86dc-8ae4f8d6ac8a{fill:#6d5941;}.a15c95f4-d9d1-4e92-aa92-033682432769{fill:#d3d3d3;}.ae580034-e047-4370-a185-b9a0f71b8130{fill:#999;}.fd83fd22-e9ec-424b-8fcc-3ca94ca49b4e{fill:#86c486;}.affed79f-d412-44a7-b791-218ed5495b9e{fill:url(#acd9478e-716d-4ecd-9ad3-5e6502b3e13b);}.ef250565-362b-4b03-af94-8a9e9413f8b1{fill:#434344;}.b9d506e1-373a-42c5-a34c-3ee10747c2bf{fill:#eae5e6;}.aff54cc0-a2a0-4829-92cf-49b68a7c0b19{fill:#e08d28;}</style><linearGradient id="acd9478e-716d-4ecd-9ad3-5e6502b3e13b" x1="6732.57" y1="2311.64" x2="10032.03" y2="2311.64" gradientTransform="matrix(-1, 0, 0, 1, 11554.93, 0)" gradientUnits="userSpaceOnUse"><stop offset="0" stop-color="#86c486"/><stop offset="1" stop-color="#92cddd"/></linearGradient></defs><title>$x2Artboard 2</title><g id="fdb7e5d4-8fb3-4679-85c8-e86a32debd1e" data-name="Layer 3"><path class="a2217882-0ee9-4450-a499-57e4661473c6" d="M1140,2258.37c185,405.33,435.59,777.41,747.22,1003.56,352.39,255.72,720.24,191.17,1108.26-7.94,253.59-130.12,502.2-292.07,760.22-398.62,154.95-64,309.57-106.35,468-126.63,172.48-22.09,332,29.28,497.43,64.18,220.41,46.5,407-69.39,505.93-369.82,92.76-281.69,128.69-652.67,78.09-938-53.14-299.66-242.54-439.16-445.51-524.36-462.56-194.14-1004.4-225.59-1483.92,46.22-268.28,152.06-553.49,227.91-834.77,239.79-368.92,15.59-706.25-212-1073.13-173.29-92,9.7-187,41.64-264.4,118.72-98.9,98.51-157.51,261.71-173,422.4C1008.55,1840.91,1056.71,2075.85,1140,2258.37Z"/><rect class="ae8ad1d1-8ad7-4271-8dce-8e98dae64edb" x="4233.85" y="1463.87" width="242.58" height="194.06"/><path class="ebb0781d-a3b0-455c-88f6-e29dbf73f0aa" d="M3887.92,2318l934.44,818.52V1802.69c0-117.44-95.21-212.64-212.65-212.64H4100.57c-117.44,0-212.65,95.2-212.65,212.64Z"/><ellipse class="ae8ad1d1-8ad7-4271-8dce-8e98dae64edb" cx="4355.14" cy="1190.7" rx="323.67" ry="346.38"/><path class="ae8ad1d1-8ad7-4271-8dce-8e98dae64edb" d="M4233.85,1589.51s114.62,43.57,242.58,0v-77.58H4233.85Z"/><ellipse class="ae8ad1d1-8ad7-4271-8dce-8e98dae64edb" cx="1998.38" cy="1190.7" rx="323.67" ry="346.38"/><rect class="ae8ad1d1-8ad7-4271-8dce-8e98dae64edb" x="1877.09" y="1463.87" width="242.58" height="194.06"/><path class="b9f792fd-90a7-4da0-bbc9-68a752696e7f" d="M2457.34,2317.71l-934.43,818.8V1802.69c0-117.44,95.2-212.64,212.64-212.64H2244.7c117.44,0,212.64,95.2,212.64,212.64Z"/><path class="f23451c2-4d7d-40ba-97c3-fe88532f4ab7" d="M1310.22,673.49c41.07-48.7,65.69-82.86,65.69-82.86l-27.64-23.58-26.47-22.57s-31,28.69-72.64,76.93Z"/><path class="b5ba0554-9e90-4fec-9b05-8faea308f729" d="M1236.26,636.39c-134.93,156.89-385.61,456-357,480.48s284.52-270.28,418.16-428.27Z"/><path class="a3a4b615-b69e-47e5-86dc-8ae4f8d6ac8a" d="M1387.5,573.41s87.5-4.84,89.79-81.41,4.43-84.06,32.37-95.78c0,0-172.33-23.23-172.63,134.56C1337,530.78,1367.31,560.67,1387.5,573.41Z"/><circle class="ae8ad1d1-8ad7-4271-8dce-8e98dae64edb" cx="1135.94" cy="877.35" r="105.11"/><path class="b9f792fd-90a7-4da0-bbc9-68a752696e7f" d="M1735.55,1590.05s-250.13-103.27-472.72-700.31l-197.27,93.47s464.27,1009.35,457.18,1308.07"/><path class="ae8ad1d1-8ad7-4271-8dce-8e98dae64edb" d="M1877.09,1589.51s114.61,43.57,242.58,0v-77.58H1877.09Z"/><rect class="a15c95f4-d9d1-4e92-aa92-033682432769" x="2395.7" y="1054.9" width="578.88" height="303.04" rx="105.69"/><circle class="ae580034-e047-4370-a185-b9a0f71b8130" cx="2685.14" cy="1206.42" r="35.14"/><circle class="ae580034-e047-4370-a185-b9a0f71b8130" cx="2539.39" cy="1206.42" r="35.14"/><circle class="ae580034-e047-4370-a185-b9a0f71b8130" cx="2830.88" cy="1206.42" r="35.14"/><path class="a15c95f4-d9d1-4e92-aa92-033682432769" d="M2395.7,1215.81s4.76,127.07-38.8,136.59c0,0,70.71,0,94.28-31.43s26.18-98.2,26.18-98.2Z"/><rect class="a15c95f4-d9d1-4e92-aa92-033682432769" x="3377.8" y="1054.9" width="578.88" height="303.04" rx="105.69" transform="translate(7334.48 2412.84) rotate(-180)"/><path class="a15c95f4-d9d1-4e92-aa92-033682432769" d="M3956.68,1215.81s-4.76,127.07,38.8,136.59c0,0-70.71,0-94.28-31.43s-26.19-98.2-26.19-98.2Z"/><path class="ae580034-e047-4370-a185-b9a0f71b8130" d="M3583.86,1261.51l-101-41.9v-26.36l101-42v31.55l-61.38,23.65,61.38,23.67Z"/><path class="ae580034-e047-4370-a185-b9a0f71b8130" d="M3677.34,1107.63h27.09l-48,197.58h-26.82Z"/><path class="ae580034-e047-4370-a185-b9a0f71b8130" d="M3750.63,1230.15l61.37-23.67-61.37-23.65v-31.55l101,42v26.36l-101,41.9Z"/><path class="fd83fd22-e9ec-424b-8fcc-3ca94ca49b4e" d="M3172.47,1486.78c-911.12,0-1649.73,738.61-1649.73,1649.73h562.62c0-600.4,486.71-1087.12,1087.11-1087.12s1087.12,486.72,1087.12,1087.12H4822.2C4822.2,2225.39,4083.59,1486.78,3172.47,1486.78Z"/><path class="affed79f-d412-44a7-b791-218ed5495b9e" d="M3172.63,1486.78c911.12,0,1649.73,738.61,1649.73,1649.73H4259.75c0-600.4-486.72-1087.12-1087.12-1087.12S2085.52,2536.11,2085.52,3136.51H1522.91C1522.91,2225.39,2261.51,1486.78,3172.63,1486.78Z"/><path class="ef250565-362b-4b03-af94-8a9e9413f8b1" d="M1857.1,2040.77l3.81,3.16-3.82-3.14L3215,3273.64s54.74-.19,87.16-39.44c33.26-40.28,22.25-93,22.25-93Z"/><circle class="ef250565-362b-4b03-af94-8a9e9413f8b1" cx="3172.47" cy="3136.51" r="108.28"/><circle class="b9d506e1-373a-42c5-a34c-3ee10747c2bf" cx="3172.47" cy="3136.51" r="53.43"/><rect class="aff54cc0-a2a0-4829-92cf-49b68a7c0b19" x="5024.38" y="2636.01" width="115.65" height="413.46" rx="12" transform="translate(-245.98 5192.3) rotate(-53.02)"/><rect class="f23451c2-4d7d-40ba-97c3-fe88532f4ab7" x="4727.18" y="2388.36" width="50.76" height="412.01" transform="translate(-178.91 4830.02) rotate(-53.02)"/><rect class="f23451c2-4d7d-40ba-97c3-fe88532f4ab7" x="4489.41" y="2368.06" width="82.47" height="119.23" transform="translate(-134.17 4586.34) rotate(-53.02)"/><polygon class="f23451c2-4d7d-40ba-97c3-fe88532f4ab7" points="4578.27 2463.54 4553.46 2496.48 4584.09 2499.26 4599.15 2479.27 4614.21 2459.27 4603.07 2430.6 4578.27 2463.54"/><circle class="ae8ad1d1-8ad7-4271-8dce-8e98dae64edb" cx="5126.77" cy="2764.54" r="105.11"/><path class="ebb0781d-a3b0-455c-88f6-e29dbf73f0aa" d="M4576.69,1787.52s246.71,345.28,422.39,974l197.27-93.47s-238.62-1102.12-586.64-1078"/></g></svg>