<?xml version="1.0" encoding="utf-8"?>
<!-- Generator: Adobe Illustrator 21.0.2, SVG Export Plug-In . SVG Version: 6.00 Build 0)  -->
<svg version="1.1" id="Logo" xmlns="http://www.w3.org/2000/svg" xmlns:xlink="http://www.w3.org/1999/xlink" x="0px" y="0px"
	 viewBox="0 0 375 181.5" style="enable-background:new 0 0 375 181.5;" xml:space="preserve">
<style type="text/css">
	.st0{fill:#004C9B;}
	.st1{fill:#FFDC00;}
	.st2{fill:#FFFFFF;}
</style>
<g>
	<rect y="30.2" class="st0" width="355.3" height="151.3"/>
	<rect x="325" class="st1" width="50" height="151.3"/>
	<g>
		<path class="st2" d="M55.8,79.2c4.3-1,9.2-4.8,9.2-12c0-7.8-5.4-12.5-14.4-12.5h-20l-0.5,0.5v41.2l0.5,0.5h7.1l0.5-0.5V80.5
			l0.5-0.6h6.6l1,0.6l12.1,15.8l1.1,0.5h3.5l0.5-0.5v-5.9l-8-10.4v-0.8H55.8z M50.6,72.9H38.8l-0.4-0.5V62l0.5-0.5h11.9
			c4.3,0,6.3,1.8,6.3,5.7C57,71.1,54.9,72.9,50.6,72.9z"/>
		<path class="st2" d="M74,108.6c8.7,0,11-5.6,13.1-11.2l9.7-24.3v-5.9l-0.5-0.5h-5.3l-0.5,0.5l-7.5,21h-0.8L75,67.3l-0.5-0.5h-5.3
			l-0.5,0.5v5.9L78.4,97v0.6c-0.6,2.1-1.3,4.3-4.4,4.2h-3.5l-0.5,0.5v5.9l0.5,0.5H74V108.6z"/>
		<path class="st2" d="M127.9,84.6l0.5-0.5v-2.4c0-11.5-7.7-15.5-14.4-15.5c-6.7,0-14.4,4-14.4,15.5c0,7.2,3.9,15.5,15,15.5
			c10.1,0,12.1-6.7,12.5-8.8l-0.5-0.5h-7.1l-0.5,0.5c-0.6,1.1-2.3,1.9-4.4,1.9c-5.2,0-6.3-3.9-6.3-5.3l0.5-0.5h19.1V84.6z
			 M108.5,78.4c0-1.5,1-5.4,5.7-5.4s5.7,4,5.7,5.3l-0.5,0.5H109L108.5,78.4z"/>
		<path class="st2" d="M141.7,69.5l-0.8-2.3l-0.5-0.5h-6.6l-0.5,0.5v28.9l0.5,0.5h7.1l0.5-0.5V81.6c0-5.7,2-8.1,6.8-8.1h4.2L153,73
			v-5.9l-0.5-0.5h-3.5c-5.6,0-6.7,2.8-6.7,2.8h-0.5V69.5z"/>
		<path class="st2" d="M171.6,78.9c-0.6-0.1-1.3-0.3-1.9-0.3c-3-0.4-5.6-0.8-5.6-2.9c0-2.1,1.6-2.7,4.4-2.7c3,0,4.4,0.6,4.4,1.9
			l0.5,0.5h7.1l0.5-0.5c0-5.4-4.8-8.8-12.5-8.8c-7.8,0-12.5,3.3-12.5,9c0,5.1,3.8,8.2,11.4,9.5c0.5,0.1,0.9,0.1,1.4,0.3
			c2.9,0.5,4.8,0.8,4.8,3c0,2.4-2.9,2.7-5.1,2.7c-2.7,0-5.1-0.4-5.1-3.2l-0.5-0.5H156l-0.5,0.5c0,6.2,5.1,10.1,13.1,10.1
			c6.3,0,13.1-2.5,13.1-9.5C181.8,80.6,174.9,79.4,171.6,78.9z"/>
		<path class="st2" d="M200.2,66.2c-9.1,0-15,6.1-15,15.5s5.9,15.5,15,15.5s15-6.1,15-15.5S209.3,66.2,200.2,66.2z M200.2,90.4
			c-4.4,0-6.8-3.2-6.8-8.7s2.5-8.7,6.8-8.7c4.4,0,6.8,3.2,6.8,8.7C207.1,87.3,204.6,90.4,200.2,90.4z"/>
		<path class="st2" d="M240.5,96.7h7.1l0.5-0.5V78.1c0-7.3-4.3-12-11.4-12c-3.2,0-6.1,1.1-8.1,3.3h-0.5l-0.8-2.1l-0.5-0.5h-6.6
			l-0.5,0.5v28.9l0.5,0.5h7.1l0.5-0.5V81c0-5.3,2.3-8.1,6.8-8.1c3.3,0,5.1,1.9,5.1,5.7v17.6L240.5,96.7z"/>
		<path class="st2" d="M63.8,109.6l-0.5-0.5h-7.1l-0.5,0.5V135c0,6.6-2.9,9.9-8.7,9.9s-8.7-3.3-8.7-9.9v-25.4l-0.5-0.5h-7.1
			l-0.5,0.5V135c0,10.9,5.9,16.8,16.8,16.8s16.8-5.9,16.8-16.8V109.6z"/>
		<g>
			<polygon class="st2" points="104.6,109.1 104.1,109.6 104.1,115.6 104.6,116.1 111.8,116.1 112.2,115.6 112.2,109.6 111.8,109.1 
							"/>
			<polygon class="st2" points="111.8,151.3 112.2,150.8 112.2,121.8 111.8,121.3 104.6,121.3 104.1,121.8 104.1,150.8 104.6,151.3 
							"/>
		</g>
		<polygon class="st2" points="139.4,121.3 138.9,121.8 131.5,141.1 130.9,141.1 123.4,121.8 122.9,121.3 117.6,121.3 117.1,121.8 
			117.1,127.7 127.3,150.7 127.9,151.3 134.4,151.3 134.9,150.7 145.3,127.7 145.3,121.8 144.7,121.3 		"/>
		<path class="st2" d="M219.9,133.4c-0.6-0.1-1.3-0.3-1.9-0.3c-3-0.4-5.6-0.8-5.6-2.9s1.6-2.7,4.4-2.7c3,0,4.4,0.6,4.4,1.9l0.5,0.5
			h7.1l0.5-0.5c0-5.4-4.8-8.8-12.5-8.8c-7.8,0-12.5,3.3-12.5,9c0,5.1,3.8,8.2,11.4,9.5c0.5,0.1,0.9,0.1,1.4,0.3
			c2.9,0.5,4.8,0.8,4.8,3c0,2.4-2.9,2.7-5.1,2.7c-2.7,0-5.1-0.4-5.1-3.2l-0.5-0.5h-7.1l-0.5,0.5c0,6.2,5.1,10.1,13.1,10.1
			c6.3,0,13.1-2.5,13.1-9.5C230,135.1,223.2,134,219.9,133.4z"/>
		<g>
			<polygon class="st2" points="242.5,151.3 243,150.8 243,121.8 242.5,121.3 235.4,121.3 234.9,121.8 234.9,150.8 235.4,151.3 			
				"/>
			<polygon class="st2" points="235.4,109.1 234.9,109.6 234.9,115.6 235.4,116.1 242.5,116.1 243,115.6 243,109.6 242.5,109.1 			
				"/>
		</g>
		<path class="st2" d="M262.8,151.3h5.4l0.5-0.5v-5.9l-0.5-0.5h-5.4c-1.3,0-2-0.8-2-2v-13.6l0.5-0.5h6.9l0.5-0.5v-5.9l-0.5-0.5h-6.9
			l-0.5-0.5v-5.7l-0.5-0.5h-7.1l-0.5,0.5v5.7l-0.5,0.5h-4.4l-0.5,0.5v5.9l0.5,0.5h4.5l0.5,0.5v13.6
			C252.7,150.4,259.8,151.3,262.8,151.3z"/>
		<path class="st2" d="M90.4,151.3h7.1l0.5-0.5v-18.2c0-7.3-4.3-12-11.4-12c-3.2,0-6.1,1.1-8.1,3.3h-0.5l-0.8-2.1l-0.5-0.5h-6.6
			l-0.5,0.5v29.1l0.5,0.5h7.1l0.5-0.5v-15.2c0-5.3,2.3-8.1,6.8-8.1c3.3,0,5.1,1.9,5.1,5.7v17.6L90.4,151.3z"/>
		<path class="st2" d="M176.2,139.2l0.5-0.5v-2.4c0-11.5-7.7-15.5-14.4-15.5s-14.4,4-14.4,15.5c0,7.2,3.9,15.5,15,15.5
			c10.1,0,12.1-6.7,12.5-8.8l-0.5-0.5h-7.1l-0.5,0.5c-0.6,1.1-2.3,1.9-4.4,1.9c-5.2,0-6.3-3.9-6.3-5.3l0.5-0.5h19.1V139.2z
			 M156.7,133c0-1.5,1-5.4,5.7-5.4c4.7,0,5.7,4,5.7,5.3l-0.5,0.5h-10.5L156.7,133z"/>
		<path class="st2" d="M189.8,124l-0.8-2.3l-0.5-0.5H182l-0.5,0.5v29.1l0.5,0.5h7.1l0.5-0.5v-14.5c0-5.7,2-8.1,6.8-8.1h4.2l0.5-0.5
			v-5.9l-0.5-0.5H197c-5.6,0-6.7,2.8-6.7,2.8H189.8z"/>
		<path class="st2" d="M277.7,163.2c8.7,0,11-5.6,13.1-11.2l9.7-24.3v-5.9l-0.5-0.5h-5.3l-0.5,0.5l-7.5,21h-0.8l-7.3-21l-0.5-0.5
			h-5.3l-0.5,0.5v5.9l9.7,23.7v0.6c-0.6,2.3-1.6,4.2-4.4,4.2h-2.9l-0.5,0.5v5.9l0.5,0.5L277.7,163.2L277.7,163.2z"/>
	</g>
</g>
</svg>
