<?xml version="1.0" encoding="UTF-8" standalone="no"?>
<!DOCTYPE svg PUBLIC "-//W3C//DTD SVG 1.1//EN" "http://www.w3.org/Graphics/SVG/1.1/DTD/svg11.dtd" >
<svg xmlns="http://www.w3.org/2000/svg">
<metadata>
This is a SVG font generated by e-font.
</metadata>
<defs>
<font id="lineto-replica-regular" horiz-adv-x="565" >
<font-face units-per-em="1000" ascent="900" descent="-220" />
<missing-glyph horiz-adv-x="565" />
<glyph unicode="&#x20;" horiz-adv-x="260" />
<glyph unicode="&#x21;" horiz-adv-x="360" d="M210 210L200 200L160 200L150 210L130 440L130 690L140 700L220 700L230 690L230 440L210 210ZM230 0L130 0L120 10L120 110L130 120L230 120L240 110L240 10L230 0Z"/>
<glyph unicode="&#x22;" horiz-adv-x="460" d="M370 390L290 390L280 400L280 690L290 700L370 700L380 690L380 400L370 390ZM170 390L90 390L80 400L80 690L90 700L170 700L180 690L180 400L170 390Z"/>
<glyph unicode="&#x23;" horiz-adv-x="650" d="M350 190L340 200L220 200L210 190L160 10L150 0L100 0L90 10L90 80L120 190L110 200L40 200L30 210L30 270L40 280L140 280L150 290L180 410L170 420L90 420L80 430L80 490L90 500L200 500L210 510L260 690L270 700L320 700L330 690L330 620L300 510L310 500L430 500L440 510L490 690L500 700L550 700L560 690L560 620L530 510L540 500L610 500L620 490L620 430L610 420L510 420L500 410L470 290L480 280L560 280L570 270L570 210L560 200L450 200L440 190L390 10L380 0L330 0L320 10L320 80L350 190ZM370 280L380 290L410 410L400 420L280 420L270 410L240 290L250 280L370 280Z"/>
<glyph unicode="&#x24;" horiz-adv-x="600" d="M330 -90L270 -90L260 -80L260 -20L250 -10C175 0 121 25 89 64C56 103 40 155 40 220L50 230L130 230L140 220C140 203 142 186 145 171C148 155 153 141 161 128C169 115 180 105 195 97C209 88 227 83 250 80L260 90L260 310L250 320C185 335 135 359 101 390C67 421 50 465 50 520C50 543 53 565 60 586C67 607 78 625 94 642C109 659 130 673 156 685C181 696 213 705 250 710L260 720L260 780L270 790L330 790L340 780L340 720L350 710C380 707 407 700 431 688C454 676 474 661 490 642C506 623 518 602 527 578C536 553 540 527 540 500L530 490L450 490L440 500C440 530 433 556 418 579C403 601 380 615 350 620L340 610L340 410L350 400C375 395 400 387 425 378C450 369 472 356 492 340C512 324 528 304 541 280C554 255 560 225 560 190C560 173 557 153 551 132C545 111 534 90 519 71C503 52 482 35 455 20C428 5 393 -5 350 -10L340 -20L340 -80L330 -90ZM460 190C460 207 457 222 451 235C445 248 437 258 427 267C417 276 405 283 392 288C379 293 365 297 350 300L340 290L340 90L350 80C386 85 413 98 432 117C451 136 460 160 460 190ZM150 520C150 490 159 467 178 452C196 436 220 425 250 420L260 430L260 610L250 620C230 617 214 613 201 606C188 599 177 590 170 581C163 572 158 562 155 551C152 540 150 530 150 520Z"/>
<glyph unicode="&#x25;" horiz-adv-x="900" d="M210 330C180 330 154 335 133 344C112 353 94 367 80 384C66 401 56 421 50 444C43 467 40 493 40 520C40 547 43 573 50 596C56 619 66 640 80 657C94 674 112 687 133 696C154 705 180 710 210 710C240 710 266 705 287 696C308 687 326 674 340 657C354 640 364 619 371 596C377 573 380 547 380 520C380 493 377 467 371 444C364 421 354 401 340 384C326 367 308 353 287 344C266 335 240 330 210 330ZM130 520C130 484 136 457 148 438C159 419 180 410 210 410C240 410 261 419 273 438C284 457 290 484 290 520C290 556 284 583 273 602C261 621 240 630 210 630C180 630 159 621 148 602C136 583 130 556 130 520ZM280 10L270 0L230 0L220 10L220 80L620 690L630 700L670 700L680 690L680 620L280 10ZM690 -10C660 -10 634 -5 613 4C592 13 574 27 560 44C546 61 536 81 530 104C523 127 520 153 520 180C520 207 523 233 530 256C536 279 546 300 560 317C574 334 592 347 613 356C634 365 660 370 690 370C720 370 746 365 767 356C788 347 806 334 820 317C834 300 844 279 851 256C857 233 860 207 860 180C860 153 857 127 851 104C844 81 834 61 820 44C806 27 788 13 767 4C746 -5 720 -10 690 -10ZM610 180C610 144 616 117 628 98C639 79 660 70 690 70C720 70 741 79 753 98C764 117 770 144 770 180C770 216 764 243 753 262C741 281 720 290 690 290C660 290 639 281 628 262C616 243 610 216 610 180Z"/>
<glyph unicode="&#x26;" horiz-adv-x="750" d="M680 0L640 0L620 10L560 70L550 70C535 57 519 46 504 37C489 27 472 19 454 12C436 5 416 -1 394 -5C372 -8 347 -10 320 -10C280 -10 245 -5 215 6C185 17 160 31 140 50C120 69 105 91 95 117C85 142 80 170 80 200C80 227 84 251 91 272C98 293 107 311 120 327C133 342 148 356 165 368C182 379 200 390 220 400L220 410C205 425 191 444 179 465C166 486 160 515 160 550C160 567 163 586 170 605C177 624 187 641 202 657C216 672 234 685 257 695C280 705 307 710 340 710C373 710 400 706 422 697C443 688 461 676 474 662C487 647 496 631 502 613C507 595 510 577 510 560C510 537 507 517 500 500C493 482 484 466 473 453C462 439 449 427 434 417C419 406 405 397 390 390L390 380L540 230L550 230C557 240 563 250 567 261C571 271 574 282 576 295C578 308 579 322 580 337C580 352 580 370 580 390L590 400L670 400L680 390C680 370 680 351 679 333C678 315 676 297 672 279C668 261 662 242 654 223C646 204 635 183 620 160L620 150L690 80L690 10L680 0ZM410 550C410 557 409 565 408 574C406 582 403 590 398 597C393 604 385 609 376 614C367 618 355 620 340 620C325 620 312 618 302 614C292 609 284 604 278 597C271 590 267 582 264 574C261 565 260 557 260 550C260 530 265 513 275 500C285 487 300 470 320 450L330 450C350 459 368 472 385 489C402 505 410 525 410 550ZM480 150L290 340L280 340C240 320 213 299 200 278C187 256 180 230 180 200C180 160 193 130 220 110C247 90 280 80 320 80C356 80 387 85 412 95C437 105 460 120 480 140L480 150Z"/>
<glyph unicode="&#x27;" horiz-adv-x="260" d="M170 390L90 390L80 400L80 690L90 700L170 700L180 690L180 400L170 390Z"/>
<glyph unicode="&#x28;" horiz-adv-x="420" d="M330 -200L310 -200L290 -190C257 -157 228 -128 205 -104C182 -80 162 -58 147 -38C131 -18 119 1 110 19C101 37 95 57 90 78C85 99 83 124 82 152C81 179 80 212 80 250C80 288 81 321 82 349C83 376 85 401 90 422C95 443 101 463 110 481C119 499 131 518 147 538C162 558 182 580 205 604C228 628 257 657 290 690L310 700L330 700L340 690L340 620C315 595 293 573 276 555C259 537 244 520 232 504C220 488 211 473 204 458C197 443 191 425 188 406C185 387 183 365 182 340C181 315 180 285 180 250C180 215 181 186 182 161C183 136 185 113 188 94C191 75 197 57 204 42C211 27 220 11 232 -5C243 -21 258 -38 276 -56C293 -74 315 -95 340 -120L340 -190L330 -200Z"/>
<glyph unicode="&#x29;" horiz-adv-x="420" d="M80 -190L80 -120C105 -95 126 -74 144 -56C161 -37 176 -20 188 -4C200 12 210 28 217 43C224 58 229 75 232 94C235 113 238 136 239 161C240 186 240 215 240 250C240 285 240 316 239 341C238 366 235 388 232 407C228 426 223 443 216 458C209 473 199 488 188 504C176 519 161 536 144 555C126 573 105 595 80 620L80 690L90 700L110 700L130 690C163 657 192 628 215 604C238 580 258 558 274 538C289 518 301 499 310 481C319 463 325 443 330 422C335 401 338 376 339 349C340 321 340 288 340 250C340 211 340 178 339 151C338 124 335 99 330 78C325 57 319 37 310 19C301 1 289 -18 274 -38C258 -58 238 -80 215 -104C192 -128 163 -157 130 -190L110 -200L90 -200L80 -190Z"/>
<glyph unicode="&#x2a;" horiz-adv-x="590" d="M290 270L280 280L280 440L270 440L160 330L150 330L140 340L140 350L250 460L250 470L90 470L80 480L80 490L90 500L250 500L250 510L140 620L140 630L150 640L160 640L270 530L280 530L280 690L290 700L300 700L310 690L310 530L320 530L430 640L440 640L450 630L450 620L340 510L340 500L500 500L510 490L510 480L500 470L340 470L340 460L450 350L450 340L440 330L430 330L320 440L310 440L310 280L300 270L290 270Z"/>
<glyph unicode="&#x2b;" horiz-adv-x="590" d="M520 210L350 210L340 200L340 30L330 20L260 20L250 30L250 200L240 210L70 210L60 220L60 290L70 300L240 300L250 310L250 480L260 490L330 490L340 480L340 310L350 300L520 300L530 290L530 220L520 210Z"/>
<glyph unicode="&#x2c;" horiz-adv-x="280" d="M190 -30L130 -110L110 -120L70 -120L70 -110L130 -20L130 -10L120 0L90 0L80 10L80 110L90 120L190 120L200 110L200 0L190 -30Z"/>
<glyph unicode="&#x2d;" horiz-adv-x="410" d="M340 210L70 210L60 220L60 290L70 300L340 300L350 290L350 220L340 210Z"/>
<glyph unicode="&#x2e;" horiz-adv-x="280" d="M190 0L90 0L80 10L80 110L90 120L190 120L200 110L200 10L190 0Z"/>
<glyph unicode="&#x2f;" horiz-adv-x="510" d="M110 10L100 0L50 0L40 10L40 80L400 690L410 700L460 700L470 690L470 620L110 10Z"/>
<glyph unicode="&#x30;" horiz-adv-x="580" d="M40 350C40 417 47 474 60 520C73 566 90 603 113 631C135 659 161 679 192 692C222 704 255 710 290 710C325 710 357 704 388 692C419 679 445 659 468 631C490 603 508 566 521 520C534 474 540 417 540 350C540 283 534 226 521 180C508 134 490 97 468 69C445 41 419 21 388 9C357 -4 325 -10 290 -10C255 -10 222 -4 192 9C161 21 135 41 113 69C90 97 73 134 60 180C47 226 40 283 40 350ZM140 350C140 300 144 258 151 224C158 189 169 161 182 140C195 119 210 103 229 94C247 85 267 80 290 80C313 80 333 85 352 94C370 103 386 119 399 140C412 161 422 189 429 224C436 258 440 300 440 350C440 400 436 442 429 477C422 511 412 539 399 560C386 581 370 597 352 606C333 615 313 620 290 620C267 620 247 615 229 606C210 597 195 581 182 560C169 539 158 511 151 477C144 442 140 400 140 350Z"/>
<glyph unicode="&#x31;" horiz-adv-x="380" d="M210 0L200 10L200 570L190 570L70 450L50 450L40 460L40 540L190 690L210 700L290 700L300 690L300 10L290 0L210 0Z"/>
<glyph unicode="&#x32;" horiz-adv-x="550" d="M500 0L50 0L40 10L40 90L50 110L250 270C275 290 296 309 314 326C332 343 347 360 358 377C369 394 377 411 382 429C387 447 390 467 390 490C390 507 388 524 384 540C380 555 373 569 364 581C355 593 342 603 327 610C312 617 293 620 270 620C224 620 191 608 171 585C150 562 140 530 140 490L130 480L50 480L40 490C40 523 45 553 55 580C65 607 80 630 99 649C118 668 142 683 171 694C200 705 233 710 270 710C310 710 344 704 372 691C400 678 423 662 440 642C457 622 470 600 478 575C486 550 490 525 490 500C490 467 486 438 479 413C472 387 461 363 447 342C433 320 416 299 397 280C377 260 355 240 330 220L180 100L180 90L500 90L510 80L510 10L500 0Z"/>
<glyph unicode="&#x33;" horiz-adv-x="550" d="M510 230C510 193 504 159 492 130C480 100 463 75 441 54C419 33 393 18 362 7C331 -5 297 -10 260 -10C225 -10 193 -5 165 6C136 17 112 31 92 49C72 67 57 88 46 113C35 137 30 163 30 190L40 200L120 200L130 190C130 177 133 165 138 152C143 139 150 127 161 116C172 105 185 97 202 90C218 83 237 80 260 80C310 80 348 94 373 121C398 148 410 184 410 230C410 276 398 311 375 335C352 358 320 370 280 370C267 370 256 368 247 365C237 362 228 358 221 355C213 350 206 345 200 340L170 340L160 350L160 420L350 600L350 610L70 610L60 620L60 690L70 700L460 700L470 690L470 610L460 590L310 450L310 440C312 441 315 441 320 441L330 441C350 441 371 437 392 430C413 423 432 411 450 394C467 377 482 356 493 329C504 302 510 269 510 230Z"/>
<glyph unicode="&#x34;" horiz-adv-x="550" d="M460 0L380 0L370 10L370 190L360 200L30 200L20 210L20 290L30 310L350 690L370 700L460 700L470 690L470 10L460 0ZM370 570L360 570L130 300L130 290L360 290L370 300L370 570Z"/>
<glyph unicode="&#x35;" horiz-adv-x="580" d="M530 250C530 160 509 94 466 53C423 11 365 -10 290 -10C253 -10 220 -5 193 5C165 14 142 28 123 45C104 62 90 83 80 108C69 133 63 160 60 190L70 200L150 200L160 190C163 175 166 160 171 147C175 134 182 122 191 112C200 102 213 94 229 89C244 83 265 80 290 80C340 80 376 94 398 123C419 151 430 190 430 240C430 263 428 283 424 302C419 320 412 336 402 349C392 362 379 372 362 379C345 386 325 390 300 390C275 390 254 386 237 378C220 369 207 360 197 350C185 338 176 325 170 310L150 300L80 310L70 320L90 690L100 700L490 700L500 690L500 620L490 610L190 610L180 600L170 420L180 420C187 431 198 441 212 450C223 457 238 464 256 471C273 477 295 480 320 480C357 480 389 474 416 461C443 448 465 431 482 410C499 389 511 364 519 337C526 309 530 280 530 250Z"/>
<glyph unicode="&#x36;" horiz-adv-x="570" d="M50 340C50 410 56 469 68 516C80 563 97 601 120 630C143 659 170 679 202 692C234 704 270 710 310 710C371 710 420 696 457 667C494 638 515 596 520 540L510 530L430 530L420 540C415 570 402 591 383 603C364 614 336 620 300 620C277 620 257 616 241 608C225 600 212 590 202 577C191 564 183 549 178 534C172 518 168 502 165 487C162 471 161 456 161 443C160 430 160 419 160 410L170 410C179 420 189 428 202 435C213 441 228 447 246 452C263 457 285 460 310 460C380 460 434 439 473 398C511 356 530 300 530 230C530 193 525 159 514 130C503 100 487 75 467 54C447 33 423 18 395 7C366 -5 335 -10 300 -10C263 -10 229 -5 198 7C167 18 141 37 119 64C97 91 80 127 68 172C56 217 50 273 50 340ZM430 220C430 243 428 263 424 282C419 300 412 316 402 329C392 342 379 352 362 359C345 366 325 370 300 370C254 370 219 358 196 335C172 311 160 276 160 230C160 205 164 183 171 164C178 145 187 130 199 118C211 105 225 96 241 90C256 83 273 80 290 80C336 80 371 92 395 116C418 139 430 174 430 220Z"/>
<glyph unicode="&#x37;" horiz-adv-x="510" d="M190 10L180 0L130 0L120 10L120 90L370 600L370 610L50 610L40 620L40 690L50 700L470 700L480 690L480 610L190 10Z"/>
<glyph unicode="&#x38;" horiz-adv-x="560" d="M520 200C520 173 515 146 505 121C495 96 480 73 460 54C440 35 415 19 385 8C355 -4 320 -10 280 -10C240 -10 205 -4 175 8C145 19 120 35 100 54C80 73 65 96 55 121C45 146 40 173 40 200C40 225 43 247 50 266C57 285 65 301 75 315C85 328 96 340 108 349C119 358 130 365 140 370L140 380C133 385 124 391 115 399C106 406 97 416 89 428C81 439 74 453 69 468C63 483 60 500 60 520C60 545 65 569 74 592C83 615 96 635 114 653C132 670 155 684 183 695C210 705 243 710 280 710C317 710 350 705 378 695C405 684 428 670 446 653C464 635 478 615 487 592C496 569 500 545 500 520C500 500 497 483 492 468C486 453 479 439 471 428C463 416 454 406 445 399C436 391 427 385 420 380L420 370C430 365 441 358 453 349C464 340 475 328 485 315C495 301 503 285 510 266C517 247 520 225 520 200ZM400 520C400 533 398 545 394 557C390 569 383 580 374 589C365 598 352 606 337 612C322 617 303 620 280 620C257 620 238 617 223 612C208 606 195 598 186 589C177 580 170 569 166 557C162 545 160 533 160 520C160 490 170 464 190 443C210 421 240 410 280 410C320 410 350 421 370 443C390 464 400 490 400 520ZM420 200C420 217 417 234 412 250C407 265 399 279 388 291C377 303 362 313 344 320C326 327 305 330 280 330C255 330 233 327 216 320C198 313 184 303 173 291C162 279 153 265 148 250C143 234 140 217 140 200C140 185 143 170 148 156C153 141 162 129 173 118C184 107 198 98 216 91C233 84 255 80 280 80C305 80 326 84 344 91C362 98 377 107 388 118C399 129 407 141 412 156C417 170 420 185 420 200Z"/>
<glyph unicode="&#x39;" horiz-adv-x="570" d="M520 370C520 300 515 241 504 193C493 144 476 105 454 75C432 45 405 23 373 10C340 -3 303 -10 260 -10C205 -10 159 5 123 34C86 63 65 105 60 160L70 170L150 170L160 160C165 130 178 109 197 98C216 86 240 80 270 80C293 80 313 84 329 92C345 100 358 111 369 124C379 137 387 151 393 168C398 184 402 200 405 217C408 233 409 248 410 263C410 278 410 290 410 300L400 300C395 295 390 291 385 287C380 282 374 278 367 275C356 268 341 263 324 258C307 253 285 250 260 250C227 250 198 255 171 266C144 277 120 292 101 312C82 332 67 356 56 385C45 413 40 445 40 480C40 517 46 550 58 579C69 608 85 632 106 651C127 670 151 685 179 695C207 705 237 710 270 710C310 710 346 705 377 694C408 683 434 664 455 638C476 611 493 576 504 533C515 489 520 435 520 370ZM140 480C140 434 152 399 175 376C198 352 230 340 270 340C316 340 351 352 375 376C398 399 410 434 410 480C410 530 397 566 370 588C343 609 310 620 270 620C230 620 198 608 175 585C152 561 140 526 140 480Z"/>
<glyph unicode="&#x3a;" horiz-adv-x="280" d="M190 380L90 380L80 390L80 490L90 500L190 500L200 490L200 390L190 380ZM190 0L90 0L80 10L80 110L90 120L190 120L200 110L200 10L190 0Z"/>
<glyph unicode="&#x3b;" horiz-adv-x="280" d="M190 380L90 380L80 390L80 490L90 500L190 500L200 490L200 390L190 380ZM190 -30L130 -110L110 -120L70 -120L70 -110L130 -20L130 -10L120 0L90 0L80 10L80 110L90 120L190 120L200 110L200 0L190 -30Z"/>
<glyph unicode="&#x3c;" horiz-adv-x="580" d="M80 300L470 500L490 500L500 490L500 430L490 410L180 260L180 240L490 90L500 70L500 10L490 0L470 0L80 200L70 220L70 280L80 300Z"/>
<glyph unicode="&#x3d;" horiz-adv-x="600" d="M510 300L90 300L80 310L80 380L90 390L510 390L520 380L520 310L510 300ZM510 110L90 110L80 120L80 190L90 200L510 200L520 190L520 120L510 110Z"/>
<glyph unicode="&#x3e;" horiz-adv-x="580" d="M510 280L510 220L500 200L110 0L90 0L80 10L80 70L90 90L400 240L400 260L90 410L80 430L80 490L90 500L110 500L500 300L510 280Z"/>
<glyph unicode="&#x3f;" horiz-adv-x="600" d="M520 520C520 495 518 473 513 455C508 437 501 421 492 407C483 392 473 379 461 367C448 355 435 343 420 330C405 317 392 306 382 297C372 288 364 278 358 269C351 260 347 250 344 239C341 228 340 215 340 200L330 190L250 190L240 200C240 220 241 238 244 254C247 269 251 284 258 297C264 310 272 322 282 334C292 345 305 357 320 370C335 383 348 394 361 405C373 416 383 427 392 438C401 449 408 461 413 474C418 487 420 502 420 520C420 533 418 545 414 557C410 569 403 580 394 589C385 598 372 606 357 612C342 617 323 620 300 620C255 620 223 608 206 585C189 562 180 530 180 490L170 480L90 480L80 490C80 523 85 553 94 580C103 607 116 630 134 649C152 668 175 683 203 694C230 705 263 710 300 710C333 710 363 706 390 697C417 688 440 676 459 660C478 644 493 624 504 601C515 577 520 550 520 520ZM340 0L240 0L230 10L230 110L240 120L340 120L350 110L350 10L340 0Z"/>
<glyph unicode="&#x40;" horiz-adv-x="920" d="M460 380C430 380 406 371 388 353C369 334 360 300 360 250C360 200 369 166 388 148C406 129 430 120 460 120C490 120 513 129 528 148C543 166 550 200 550 250C550 300 543 334 528 353C513 371 490 380 460 380ZM550 450L560 460L640 460L650 450L650 160C650 135 655 118 664 111C673 104 685 100 700 100C725 100 742 113 749 138C756 163 760 200 760 250C760 293 754 333 743 372C731 411 713 445 689 474C664 503 633 527 596 544C558 561 513 570 460 570C410 570 366 561 329 544C291 527 260 503 235 474C210 445 191 411 179 372C166 333 160 293 160 250C160 205 166 163 179 124C191 85 210 52 235 23C260 -7 291 -29 329 -46C366 -62 410 -70 460 -70C496 -70 528 -66 556 -58C583 -49 605 -40 620 -30L640 -30L650 -40L650 -110C630 -125 603 -138 570 -147C537 -156 500 -160 460 -160C400 -160 345 -150 296 -130C247 -109 205 -81 170 -45C135 -9 108 34 89 85C70 135 60 190 60 250C60 310 70 365 89 416C108 466 135 509 170 545C205 581 247 609 296 630C345 650 400 660 460 660C520 660 575 650 624 630C673 609 715 581 750 545C785 509 812 466 831 416C850 365 860 310 860 250C860 170 844 112 813 75C781 38 740 20 690 20C660 20 637 26 620 39C603 51 590 65 580 80L570 80C565 75 559 69 553 64C546 58 538 53 529 48C520 43 509 38 496 35C483 32 467 30 450 30C425 30 401 35 378 44C355 53 335 66 318 84C300 102 286 125 276 153C265 180 260 213 260 250C260 287 265 320 276 348C286 375 300 398 317 416C334 434 353 448 374 457C395 466 417 470 440 470C457 470 472 468 485 464C498 460 508 455 516 450C524 445 532 438 540 430L550 430L550 450Z"/>
<glyph unicode="&#x41;" horiz-adv-x="630" d="M600 0L540 0L530 10L470 160L450 170L180 170L160 160L100 10L90 0L30 0L20 10L20 80L260 690L270 700L360 700L370 690L610 80L610 10L600 0ZM320 550L310 550L200 270L210 260L420 260L430 270L320 550Z"/>
<glyph unicode="&#x42;" horiz-adv-x="640" d="M600 200C600 163 594 131 583 106C571 80 555 59 536 44C517 28 494 17 469 10C444 3 417 0 390 0L90 0L80 10L80 690L90 700L370 700C397 700 424 697 449 690C474 683 497 673 516 658C535 643 551 623 563 599C574 574 580 545 580 510C580 474 571 444 554 421C537 397 515 380 490 370L490 360C520 350 546 332 568 306C589 280 600 245 600 200ZM480 510C480 550 470 577 449 590C428 603 395 610 350 610L190 610L180 600L180 420L190 410L360 410C400 410 430 417 450 430C470 443 480 470 480 510ZM500 200C500 245 489 276 468 294C446 311 410 320 360 320L190 320L180 310L180 100L190 90L380 90C420 90 450 98 470 115C490 132 500 160 500 200Z"/>
<glyph unicode="&#x43;" horiz-adv-x="690" d="M370 -10C317 -10 271 -1 230 17C189 34 154 59 126 91C98 123 77 161 62 205C47 249 40 297 40 350C40 403 47 451 62 495C77 539 98 577 126 609C154 641 189 666 230 684C271 701 317 710 370 710C410 710 446 705 479 694C511 683 539 669 563 650C586 631 605 609 620 584C635 558 645 530 650 500L640 490L560 490L550 500C540 536 520 565 490 587C460 609 420 620 370 620C333 620 300 614 271 601C242 588 218 569 199 545C180 521 165 493 155 460C145 427 140 390 140 350C140 310 145 274 155 241C165 208 180 179 199 155C218 131 242 113 271 100C300 87 333 80 370 80C397 80 421 84 442 91C462 98 479 107 494 119C508 131 520 145 529 161C538 176 545 193 550 210L560 220L640 220L650 210C645 180 635 152 622 125C608 98 590 75 567 55C544 35 516 19 483 8C450 -4 413 -10 370 -10Z"/>
<glyph unicode="&#x44;" horiz-adv-x="670" d="M630 350C630 297 625 250 614 207C603 164 584 127 559 96C533 65 499 42 457 25C415 8 363 0 300 0L90 0L80 10L80 690L90 700L300 700C363 700 415 692 457 675C499 658 533 635 559 604C584 573 603 537 614 494C625 451 630 403 630 350ZM530 350C530 393 526 430 519 463C512 495 499 522 481 544C463 566 439 583 408 594C377 605 337 610 290 610L190 610L180 600L180 100L190 90L290 90C337 90 377 96 408 107C439 118 463 134 481 156C499 178 512 205 519 238C526 270 530 307 530 350Z"/>
<glyph unicode="&#x45;" horiz-adv-x="610" d="M540 0L90 0L80 10L80 690L90 700L540 700L550 690L550 620L540 610L190 610L180 600L180 410L190 400L520 400L530 390L530 320L520 310L190 310L180 300L180 100L190 90L540 90L550 80L550 10L540 0Z"/>
<glyph unicode="&#x46;" horiz-adv-x="570" d="M520 610L190 610L180 600L180 400L190 390L500 390L510 380L510 310L500 300L190 300L180 290L180 10L170 0L90 0L80 10L80 690L90 700L520 700L530 690L530 620L520 610Z"/>
<glyph unicode="&#x47;" horiz-adv-x="720" d="M370 620C333 620 300 614 271 601C242 588 218 569 199 545C180 521 165 493 155 460C145 427 140 390 140 350C140 310 145 274 155 241C164 208 179 179 198 155C217 131 240 113 267 100C294 87 325 80 360 80C397 80 429 85 455 96C480 106 501 120 517 138C532 155 543 175 550 198C557 221 560 245 560 270L550 280L350 280L340 290L340 360L350 370L650 370L660 360L660 10L650 0L590 0L580 10L570 70L560 70C535 45 506 25 475 11C444 -3 405 -10 360 -10C310 -10 265 -1 226 17C186 34 152 59 125 91C98 123 77 161 62 205C47 249 40 297 40 350C40 403 47 451 62 495C77 539 98 577 126 609C154 641 189 666 230 684C271 701 317 710 370 710C417 710 458 704 493 691C527 678 556 662 579 642C602 622 620 600 633 575C646 550 655 525 660 500L650 490L570 490L560 500C550 535 530 564 499 587C468 609 425 620 370 620Z"/>
<glyph unicode="&#x48;" horiz-adv-x="710" d="M620 0L540 0L530 10L530 300L520 310L190 310L180 300L180 10L170 0L90 0L80 10L80 690L90 700L170 700L180 690L180 410L190 400L520 400L530 410L530 690L540 700L620 700L630 690L630 10L620 0Z"/>
<glyph unicode="&#x49;" horiz-adv-x="260" d="M170 0L90 0L80 10L80 690L90 700L170 700L180 690L180 10L170 0Z"/>
<glyph unicode="&#x4a;" horiz-adv-x="510" d="M430 190C430 163 426 137 419 113C411 88 399 67 382 49C365 31 343 17 316 6C289 -5 257 -10 220 -10C177 -10 143 -3 117 10C91 23 71 40 57 59C42 78 33 99 28 121C23 143 20 163 20 180L20 200L30 210L110 210L120 200L120 180C120 170 121 159 123 148C125 136 130 125 137 115C144 105 154 97 167 90C180 83 197 80 220 80C256 80 283 88 302 105C321 122 330 150 330 190L330 690L340 700L420 700L430 690L430 190Z"/>
<glyph unicode="&#x4b;" horiz-adv-x="620" d="M590 0L550 0L530 10L290 320L280 320L190 230L180 210L180 10L170 0L90 0L80 10L80 690L90 700L170 700L180 690L180 360L190 360L520 690L540 700L570 700L580 690L580 620L360 400L360 390L600 80L600 10L590 0Z"/>
<glyph unicode="&#x4c;" horiz-adv-x="540" d="M520 0L90 0L80 10L80 690L90 700L170 700L180 690L180 100L190 90L520 90L530 80L530 10L520 0Z"/>
<glyph unicode="&#x4d;" horiz-adv-x="890" d="M800 0L720 0L710 10L710 490L700 490L500 10L490 0L400 0L390 10L190 490L180 490L180 10L170 0L90 0L80 10L80 690L90 700L200 700L210 690L440 130L450 130L680 690L690 700L800 700L810 690L810 10L800 0Z"/>
<glyph unicode="&#x4e;" horiz-adv-x="730" d="M640 0L550 0L530 10L190 530L180 530L180 10L170 0L90 0L80 10L80 690L90 700L180 700L200 690L540 170L550 170L550 690L560 700L640 700L650 690L650 10L640 0Z"/>
<glyph unicode="&#x4f;" horiz-adv-x="740" d="M40 350C40 403 47 451 62 495C77 539 98 577 126 609C154 641 189 666 230 684C271 701 317 710 370 710C423 710 470 701 511 684C552 666 586 641 614 609C642 577 663 539 678 495C693 451 700 403 700 350C700 297 693 249 678 205C663 161 642 123 614 91C586 59 552 34 511 17C470 -1 423 -10 370 -10C317 -10 271 -1 230 17C189 34 154 59 126 91C98 123 77 161 62 205C47 249 40 297 40 350ZM140 350C140 310 145 274 155 241C165 208 180 179 199 155C218 131 242 113 271 100C300 87 333 80 370 80C407 80 440 87 469 100C498 113 522 131 541 155C560 179 575 208 585 241C595 274 600 310 600 350C600 390 595 427 585 460C575 493 560 521 541 545C522 569 498 588 469 601C440 614 407 620 370 620C333 620 300 614 271 601C242 588 218 569 199 545C180 521 165 493 155 460C145 427 140 390 140 350Z"/>
<glyph unicode="&#x50;" horiz-adv-x="650" d="M630 500C630 465 624 435 613 410C601 385 585 364 564 348C543 331 519 319 491 312C463 304 433 300 400 300L190 300L180 290L180 10L170 0L90 0L80 10L80 690L90 700L400 700C470 700 526 684 568 653C609 621 630 570 630 500ZM530 500C530 540 520 568 500 585C479 602 446 610 400 610L190 610L180 600L180 400L190 390L400 390C446 390 479 398 500 415C520 432 530 460 530 500Z"/>
<glyph unicode="&#x51;" horiz-adv-x="740" d="M370 -10C317 -10 271 -1 230 17C189 34 154 59 126 91C98 123 77 161 62 205C47 249 40 297 40 350C40 403 47 451 62 495C77 539 98 577 126 609C154 641 189 666 230 684C271 701 317 710 370 710C423 710 470 701 511 684C552 666 586 641 614 609C642 577 663 539 678 495C693 451 700 403 700 350C700 323 699 298 696 276C693 254 690 234 685 216C680 197 673 180 666 165C659 150 650 135 640 120L640 110L670 80L670 10L660 0L610 0L570 40L560 40C535 25 506 13 473 4C440 -6 406 -10 370 -10ZM370 80C420 80 460 90 490 110L490 120L420 190L400 200L320 200L310 210L310 270L320 280L460 280L480 270L560 190L570 190C580 210 588 233 593 258C598 283 600 314 600 350C600 390 595 427 585 460C575 493 560 521 541 545C522 569 498 588 469 601C440 614 407 620 370 620C333 620 300 614 271 601C242 588 218 569 199 545C180 521 165 493 155 460C145 427 140 390 140 350C140 310 145 274 155 241C165 208 180 179 199 155C218 131 242 113 271 100C300 87 333 80 370 80Z"/>
<glyph unicode="&#x52;" horiz-adv-x="670" d="M530 500C530 540 520 568 500 585C479 602 446 610 400 610L190 610L180 600L180 400L190 390L400 390C446 390 479 398 500 415C520 432 530 460 530 500ZM630 500C630 445 616 402 589 371C562 340 525 320 480 310L480 300L620 80L620 10L610 0L570 0L550 10L370 290L350 300L190 300L180 290L180 10L170 0L90 0L80 10L80 690L90 700L400 700C470 700 526 684 568 653C609 621 630 570 630 500Z"/>
<glyph unicode="&#x53;" horiz-adv-x="630" d="M590 190C590 163 585 137 575 113C564 88 548 67 526 49C504 31 476 17 442 6C408 -5 367 -10 320 -10C277 -10 239 -5 205 5C170 15 141 30 117 49C92 68 73 92 60 121C47 150 40 183 40 220L50 230L130 230L140 220C140 170 157 134 190 113C223 91 269 80 330 80C353 80 374 82 393 86C412 90 429 96 444 105C458 114 469 125 478 139C486 153 490 170 490 190C490 213 486 231 479 246C471 260 459 272 443 281C426 290 405 298 380 304C355 309 325 315 290 320C220 330 164 351 123 383C81 414 60 460 60 520C60 543 65 565 74 588C83 611 97 631 117 649C137 667 163 682 195 693C226 704 265 710 310 710C347 710 382 706 414 699C446 691 474 679 497 662C520 645 538 623 551 596C564 569 570 537 570 500L560 490L480 490L470 500C470 520 467 538 462 553C456 568 447 580 434 590C421 600 403 608 382 613C360 618 333 620 300 620C254 620 219 611 196 593C172 574 160 550 160 520C160 500 163 484 170 471C177 458 188 447 203 438C218 429 237 421 261 416C285 410 315 405 350 400C385 395 417 387 447 378C476 369 502 356 523 340C544 324 560 304 572 280C584 255 590 225 590 190Z"/>
<glyph unicode="&#x54;" horiz-adv-x="600" d="M570 610L360 610L350 600L350 10L340 0L260 0L250 10L250 600L240 610L30 610L20 620L20 690L30 700L570 700L580 690L580 620L570 610Z"/>
<glyph unicode="&#x55;" horiz-adv-x="700" d="M620 250C620 210 614 174 602 142C589 110 572 83 549 60C526 37 497 20 464 8C431 -4 393 -10 350 -10C307 -10 269 -4 236 8C203 20 175 37 152 60C129 83 111 110 99 142C86 174 80 210 80 250L80 690L90 700L170 700L180 690L180 250C180 200 193 159 220 128C247 96 290 80 350 80C410 80 453 96 480 128C507 159 520 200 520 250L520 690L530 700L610 700L620 690L620 250Z"/>
<glyph unicode="&#x56;" horiz-adv-x="630" d="M370 10L360 0L270 0L260 10L30 620L30 690L40 700L100 700L110 690L310 140L320 140L520 690L530 700L590 700L600 690L600 620L370 10Z"/>
<glyph unicode="&#x57;" horiz-adv-x="930" d="M730 10L720 0L630 0L620 10L470 540L460 540L310 10L300 0L210 0L200 10L40 620L40 690L50 700L110 700L120 690L250 180L260 180L410 690L420 700L510 700L520 690L670 180L680 180L810 690L820 700L880 700L890 690L890 620L730 10Z"/>
<glyph unicode="&#x58;" horiz-adv-x="650" d="M600 0L560 0L540 10L330 290L320 290L110 10L90 0L50 0L40 10L40 80L260 360L260 370L50 620L50 690L60 700L100 700L120 690L320 440L330 440L530 690L550 700L590 700L600 690L600 620L390 370L390 360L610 80L610 10L600 0Z"/>
<glyph unicode="&#x59;" horiz-adv-x="580" d="M340 280L340 10L330 0L250 0L240 10L240 280L30 620L30 690L40 700L80 700L100 690L280 390L300 390L480 690L500 700L540 700L550 690L550 620L340 280Z"/>
<glyph unicode="&#x5a;" horiz-adv-x="600" d="M540 0L60 0L50 10L50 90L60 110L410 600L410 610L70 610L60 620L60 690L70 700L520 700L530 690L530 610L520 590L170 100L170 90L540 90L550 80L550 10L540 0Z"/>
<glyph unicode="&#x5b;" horiz-adv-x="370" d="M280 -200L90 -200L80 -190L80 690L90 700L280 700L290 690L290 620L280 610L190 610L180 600L180 -100L190 -110L280 -110L290 -120L290 -190L280 -200Z"/>
<glyph unicode="&#x5c;" horiz-adv-x="510" d="M40 620L40 690L50 700L100 700L110 690L470 80L470 10L460 0L410 0L400 10L40 620Z"/>
<glyph unicode="&#x5d;" horiz-adv-x="370" d="M80 -190L80 -120L90 -110L180 -110L190 -100L190 600L180 610L90 610L80 620L80 690L90 700L280 700L290 690L290 -190L280 -200L90 -200L80 -190Z"/>
<glyph unicode="&#x5e;" horiz-adv-x="580" d="M500 230L460 230L440 240L300 570L280 570L140 240L120 230L80 230L70 240L70 310L240 690L250 700L330 700L340 690L510 310L510 240L500 230Z"/>
<glyph unicode="&#x5f;" horiz-adv-x="580" d="M530 -90L50 -90L40 -80L40 -10L50 0L530 0L540 -10L540 -80L530 -90Z"/>
<glyph unicode="&#x60;" horiz-adv-x="500" d="M280 560L230 560L210 570L100 670L100 690L110 700L180 700L200 690L290 590L290 570L280 560Z"/>
<glyph unicode="&#x61;" horiz-adv-x="500" d="M440 0L370 0L360 10L350 50L340 50C331 39 320 29 307 20C296 13 281 6 264 -1C247 -7 225 -10 200 -10C144 -10 102 4 73 33C44 61 30 100 30 150C30 177 35 201 46 222C57 242 72 259 91 272C110 285 134 294 161 301C188 307 217 310 250 310C263 310 275 310 286 309C297 308 306 306 314 305C319 304 323 303 328 302C332 301 336 301 340 300L350 310L350 330C350 365 342 389 327 402C311 414 285 420 250 420C214 420 188 415 173 405C158 395 150 380 150 360L140 350L60 350L50 360C50 377 53 395 60 413C67 431 78 447 94 462C109 476 130 488 156 497C181 506 213 510 250 510C287 510 319 506 345 497C370 488 391 474 407 456C422 438 433 415 440 388C447 360 450 327 450 290L450 10L440 0ZM350 210L340 220L319 225C312 226 303 228 294 229C284 230 273 230 260 230C214 230 181 223 161 209C140 195 130 175 130 150C130 125 138 107 153 96C168 85 190 80 220 80C260 80 292 89 315 108C338 126 350 150 350 180L350 210Z"/>
<glyph unicode="&#x62;" horiz-adv-x="550" d="M520 250C520 213 515 178 504 146C493 114 478 87 459 64C440 41 417 23 390 10C363 -4 333 -10 300 -10C277 -10 258 -7 242 -1C225 6 212 13 201 20C190 29 179 39 170 50L160 50L150 10L140 0L70 0L60 10L60 690L70 700L150 700L160 690L160 450L170 450C179 461 190 471 201 480C212 487 225 494 242 501C258 507 277 510 300 510C333 510 363 504 390 492C417 480 440 463 459 440C478 417 493 390 504 358C515 326 520 290 520 250ZM420 250C420 306 408 348 385 377C362 406 330 420 290 420C250 420 218 407 195 380C172 353 160 310 160 250C160 190 172 147 195 120C218 93 250 80 290 80C330 80 362 94 385 123C408 152 420 194 420 250Z"/>
<glyph unicode="&#x63;" horiz-adv-x="520" d="M130 250C130 194 142 152 166 123C189 94 224 80 270 80C290 80 307 82 321 87C335 92 347 98 356 105C365 112 373 121 378 131C383 140 387 150 390 160L400 170L480 170L490 160C487 137 481 116 471 96C461 75 447 57 429 42C411 26 389 13 363 4C336 -5 305 -10 270 -10C233 -10 199 -4 170 8C140 20 115 37 94 60C73 83 58 110 47 142C36 174 30 210 30 250C30 290 36 326 47 358C58 390 73 417 94 440C115 463 140 480 170 492C199 504 233 510 270 510C305 510 336 505 363 496C389 487 411 474 429 459C447 443 461 425 471 405C481 384 487 363 490 340L480 330L400 330L390 340C387 350 383 360 378 370C373 379 365 388 356 395C347 402 335 408 321 413C307 418 290 420 270 420C224 420 189 406 166 377C142 348 130 306 130 250Z"/>
<glyph unicode="&#x64;" horiz-adv-x="550" d="M480 0L410 0L400 10L390 50L380 50C371 39 360 29 349 20C338 13 325 6 309 -1C292 -7 273 -10 250 -10C215 -10 184 -4 157 10C130 23 107 41 88 64C69 87 54 114 45 146C35 178 30 213 30 250C30 287 35 322 45 354C54 386 69 414 88 437C107 460 130 478 157 491C184 504 215 510 250 510C273 510 292 507 309 501C325 494 338 487 349 480C360 471 371 461 380 450L390 450L390 690L400 700L480 700L490 690L490 10L480 0ZM390 250C390 310 378 353 355 380C332 407 300 420 260 420C220 420 188 406 165 377C142 348 130 306 130 250C130 194 142 152 165 123C188 94 220 80 260 80C300 80 332 93 355 120C378 147 390 190 390 250Z"/>
<glyph unicode="&#x65;" horiz-adv-x="520" d="M380 300C380 307 379 318 377 332C374 345 369 359 361 372C353 385 341 396 325 406C309 415 287 420 260 420C233 420 211 415 195 406C179 396 167 385 159 372C151 359 146 345 144 332C141 318 140 307 140 300L150 290L370 290L380 300ZM270 -10C230 -10 195 -4 165 10C135 23 110 41 90 64C70 87 55 114 45 146C35 178 30 213 30 250C30 285 35 318 44 350C53 381 66 409 85 433C104 456 128 475 157 489C186 503 220 510 260 510C300 510 335 503 364 489C393 475 416 456 435 433C454 409 468 381 477 350C486 318 490 285 490 250L490 220L480 210L150 210L140 200C140 195 141 186 144 173C146 160 151 146 160 133C169 119 182 107 199 96C216 85 240 80 270 80C290 80 309 84 327 91C345 98 359 115 370 140L380 150L460 150L470 140C467 120 461 101 451 83C441 65 428 49 411 35C394 21 374 10 351 2C327 -6 300 -10 270 -10Z"/>
<glyph unicode="&#x66;" horiz-adv-x="370" d="M330 410L230 410L220 400L220 10L210 0L130 0L120 10L120 400L110 410L40 410L30 420L30 490L40 500L110 500L120 510L120 550C120 573 124 592 132 609C140 625 151 638 164 649C177 660 192 668 209 673C226 678 243 680 260 680L340 680L350 670L350 600L340 590L260 590C250 590 241 587 233 582C224 576 220 565 220 550L220 510L230 500L330 500L340 490L340 420L330 410Z"/>
<glyph unicode="&#x67;" horiz-adv-x="550" d="M260 -120C306 -120 339 -106 360 -77C380 -48 390 -6 390 50L380 50C371 39 360 29 349 20C338 13 325 6 309 -1C292 -7 273 -10 250 -10C215 -10 184 -4 157 10C130 23 107 41 88 64C69 87 54 114 45 146C35 178 30 213 30 250C30 287 35 322 45 354C54 386 69 414 88 437C107 460 130 478 157 491C184 504 215 510 250 510C273 510 292 507 309 501C325 494 338 487 349 480C360 471 371 461 380 450L390 450L400 490L410 500L480 500L490 490L490 60C490 10 484 -32 471 -67C458 -101 441 -129 420 -150C399 -171 374 -187 347 -196C319 -205 290 -210 260 -210C199 -210 152 -197 119 -170C85 -143 65 -110 60 -70L70 -60L150 -60L160 -70C170 -90 183 -103 199 -110C214 -117 235 -120 260 -120ZM390 250C390 310 378 353 355 380C332 407 300 420 260 420C220 420 188 406 165 377C142 348 130 306 130 250C130 194 142 152 165 123C188 94 220 80 260 80C300 80 332 93 355 120C378 147 390 190 390 250Z"/>
<glyph unicode="&#x68;" horiz-adv-x="550" d="M480 0L400 0L390 10L390 300C390 315 389 329 386 344C383 359 377 372 370 383C363 394 353 403 340 410C327 417 310 420 290 420C250 420 218 408 195 385C172 362 160 320 160 260L160 10L150 0L70 0L60 10L60 690L70 700L150 700L160 690L160 450L170 450C179 461 190 471 201 480C212 487 225 494 242 501C258 507 277 510 300 510C337 510 368 504 393 493C418 481 437 465 452 446C466 427 476 404 482 379C487 354 490 327 490 300L490 10L480 0Z"/>
<glyph unicode="&#x69;" horiz-adv-x="220" d="M150 580L70 580L60 590L60 670L70 680L150 680L160 670L160 590L150 580ZM150 0L70 0L60 10L60 490L70 500L150 500L160 490L160 10L150 0Z"/>
<glyph unicode="&#x6a;" horiz-adv-x="220" d="M150 580L70 580L60 590L60 670L70 680L150 680L160 670L160 590L150 580ZM160 -50C160 -73 156 -92 148 -109C140 -125 130 -138 117 -149C104 -160 89 -168 72 -173C55 -178 37 -180 20 -180L-30 -180L-40 -170L-40 -100L-30 -90L20 -90C30 -90 39 -87 48 -82C56 -76 60 -65 60 -50L60 490L70 500L150 500L160 490L160 -50Z"/>
<glyph unicode="&#x6b;" horiz-adv-x="500" d="M460 0L420 0L400 10L250 200L240 200L170 130L160 110L160 10L150 0L70 0L60 10L60 690L70 700L150 700L160 690L160 260L170 260L400 490L420 500L450 500L460 490L460 420L320 280L320 270L470 80L470 10L460 0Z"/>
<glyph unicode="&#x6c;" horiz-adv-x="220" d="M150 0L70 0L60 10L60 690L70 700L150 700L160 690L160 10L150 0Z"/>
<glyph unicode="&#x6d;" horiz-adv-x="810" d="M750 0L670 0L660 10L660 310C660 325 659 339 657 352C655 365 651 377 645 387C639 397 630 405 618 411C606 417 590 420 570 420C534 420 507 408 488 385C469 362 460 330 460 290L460 10L450 0L370 0L360 10L360 310C360 325 359 339 357 352C355 365 351 377 345 387C339 397 330 405 318 411C306 417 290 420 270 420C257 420 245 418 232 414C219 409 207 402 196 392C185 382 177 369 170 352C163 335 160 315 160 290L160 10L150 0L70 0L60 10L60 490L70 500L140 500L150 490L160 450L170 450C180 465 195 479 216 492C236 504 264 510 300 510C320 510 337 508 351 504C365 499 377 494 387 487C397 480 405 472 412 464C419 455 425 447 430 440L440 440C455 460 475 477 500 490C524 503 554 510 590 510C625 510 653 505 676 494C698 483 715 469 728 451C740 433 748 412 753 388C758 363 760 337 760 310L760 10L750 0Z"/>
<glyph unicode="&#x6e;" horiz-adv-x="540" d="M480 0L400 0L390 10L390 300C390 313 389 326 387 340C385 354 381 367 374 379C367 391 357 401 344 409C331 416 313 420 290 420C244 420 211 407 191 381C170 354 160 311 160 250L160 10L150 0L70 0L60 10L60 490L70 500L140 500L150 490L160 450L170 450C179 461 190 471 201 480C212 487 225 494 242 501C258 507 277 510 300 510C335 510 364 505 389 494C413 483 433 469 448 450C463 431 473 409 480 384C487 358 490 330 490 300L490 10L480 0Z"/>
<glyph unicode="&#x6f;" horiz-adv-x="540" d="M30 250C30 290 36 326 47 358C58 390 73 417 94 440C115 463 140 480 170 492C199 504 233 510 270 510C307 510 341 504 371 492C400 480 425 463 446 440C467 417 483 390 494 358C505 326 510 290 510 250C510 210 505 174 494 142C483 110 467 83 446 60C425 37 400 20 371 8C341 -4 307 -10 270 -10C233 -10 199 -4 170 8C140 20 115 37 94 60C73 83 58 110 47 142C36 174 30 210 30 250ZM130 250C130 194 142 152 166 123C189 94 224 80 270 80C316 80 351 94 375 123C398 152 410 194 410 250C410 306 398 348 375 377C351 406 316 420 270 420C224 420 189 406 166 377C142 348 130 306 130 250Z"/>
<glyph unicode="&#x70;" horiz-adv-x="550" d="M520 250C520 213 515 178 506 146C496 114 482 87 463 64C444 41 420 23 393 10C366 -4 335 -10 300 -10C277 -10 258 -7 242 -1C225 6 212 13 201 20C190 29 179 39 170 50L160 50L160 -190L150 -200L70 -200L60 -190L60 490L70 500L140 500L150 490L160 450L170 450C179 461 190 471 201 480C212 487 225 494 242 501C258 507 277 510 300 510C335 510 366 504 393 491C420 478 444 460 463 437C482 414 496 386 506 354C515 322 520 287 520 250ZM420 250C420 306 408 348 385 377C362 406 330 420 290 420C250 420 218 407 195 380C172 353 160 310 160 250C160 190 172 147 195 120C218 93 250 80 290 80C330 80 362 94 385 123C408 152 420 194 420 250Z"/>
<glyph unicode="&#x71;" horiz-adv-x="550" d="M480 -200L400 -200L390 -190L390 50L380 50C371 39 360 29 349 20C338 13 325 6 309 -1C292 -7 273 -10 250 -10C215 -10 184 -4 157 10C130 23 107 41 88 64C69 87 54 114 45 146C35 178 30 213 30 250C30 287 35 322 45 354C54 386 69 414 88 437C107 460 130 478 157 491C184 504 215 510 250 510C273 510 292 507 309 501C325 494 338 487 349 480C360 471 371 461 380 450L390 450L400 490L410 500L480 500L490 490L490 -190L480 -200ZM390 250C390 310 378 353 355 380C332 407 300 420 260 420C220 420 188 406 165 377C142 348 130 306 130 250C130 194 142 152 165 123C188 94 220 80 260 80C300 80 332 93 355 120C378 147 390 190 390 250Z"/>
<glyph unicode="&#x72;" horiz-adv-x="370" d="M340 410L290 410C270 410 252 408 236 404C220 399 206 391 195 380C184 369 175 353 169 334C163 315 160 290 160 260L160 10L150 0L70 0L60 10L60 490L70 500L140 500L150 490L160 450L170 450C177 457 185 464 193 471C201 477 210 482 220 487C230 491 242 494 255 497C268 499 283 500 300 500L340 500L350 490L350 420L340 410Z"/>
<glyph unicode="&#x73;" horiz-adv-x="460" d="M430 140C430 120 426 101 419 83C411 65 399 49 383 35C366 21 345 10 320 2C295 -6 265 -10 230 -10C164 -10 114 4 81 33C47 62 30 104 30 160L40 170L120 170L130 160C130 135 138 115 153 101C168 87 194 80 230 80C266 80 292 85 307 95C322 105 330 120 330 140C330 153 328 163 324 171C319 179 312 186 302 192C292 197 279 202 262 206C245 210 225 215 200 220C150 229 111 246 83 269C54 292 40 325 40 370C40 387 43 405 50 422C57 439 68 454 83 467C98 480 117 490 141 498C165 506 195 510 230 510C257 510 283 507 306 501C329 494 350 485 367 473C384 460 397 445 406 426C415 407 420 385 420 360L410 350L330 350L320 360C320 367 319 375 316 382C313 389 309 396 302 402C295 407 285 412 274 415C262 418 247 420 230 420C205 420 183 417 166 410C149 403 140 390 140 370C140 357 143 347 148 339C153 331 161 324 172 319C183 313 198 308 216 304C233 299 255 295 280 290C330 280 368 264 393 242C418 219 430 185 430 140Z"/>
<glyph unicode="&#x74;" horiz-adv-x="380" d="M330 0L250 0C233 0 216 3 199 8C182 13 167 20 154 31C141 42 130 55 122 72C114 88 110 107 110 130L110 400L100 410L30 410L20 420L20 490L30 500L100 500L110 510L110 600L120 610L200 610L210 600L210 510L220 500L330 500L340 490L340 420L330 410L220 410L210 400L210 130C210 115 214 104 223 99C231 93 240 90 250 90L330 90L340 80L340 10L330 0Z"/>
<glyph unicode="&#x75;" horiz-adv-x="530" d="M460 0L390 0L380 10L370 50L360 50C352 39 342 29 330 20C320 13 308 6 293 -1C278 -7 260 -10 240 -10C205 -10 175 -4 151 8C127 19 108 35 93 54C78 73 67 96 60 121C53 146 50 173 50 200L50 490L60 500L140 500L150 490L150 200C150 185 152 170 155 156C158 141 163 129 170 118C177 107 188 98 201 91C214 84 230 80 250 80C285 80 313 93 336 120C359 147 370 190 370 250L370 490L380 500L460 500L470 490L470 10L460 0Z"/>
<glyph unicode="&#x76;" horiz-adv-x="510" d="M310 10L300 0L210 0L200 10L30 420L30 490L40 500L100 500L110 490L250 140L260 140L400 490L410 500L470 500L480 490L480 420L310 10Z"/>
<glyph unicode="&#x77;" horiz-adv-x="750" d="M590 10L580 0L490 0L480 10L380 360L370 360L270 10L260 0L170 0L160 10L40 420L40 490L50 500L110 500L120 490L210 150L220 150L320 490L330 500L420 500L430 490L530 150L540 150L630 490L640 500L700 500L710 490L710 420L590 10Z"/>
<glyph unicode="&#x78;" horiz-adv-x="490" d="M450 0L420 0L400 10L250 180L240 180L90 10L70 0L40 0L30 10L30 80L180 250L180 260L40 420L40 490L50 500L80 500L100 490L240 330L250 330L390 490L410 500L440 500L450 490L450 420L310 260L310 250L460 80L460 10L450 0Z"/>
<glyph unicode="&#x79;" horiz-adv-x="510" d="M320 20C305 -17 290 -48 277 -72C263 -95 248 -114 232 -127C216 -140 198 -148 177 -153C156 -158 130 -160 100 -160L80 -160L70 -150L70 -80L80 -70L100 -70C125 -70 146 -66 162 -59C177 -52 190 -35 200 -10L200 0L30 420L30 490L40 500L100 500L110 490L250 120L260 120L400 490L410 500L470 500L480 490L480 420L320 20Z"/>
<glyph unicode="&#x7a;" horiz-adv-x="500" d="M450 0L50 0L40 10L40 90L50 110L320 400L320 410L60 410L50 420L50 490L60 500L440 500L450 490L450 410L440 390L170 100L170 90L450 90L460 80L460 10L450 0Z"/>
<glyph unicode="&#x7b;" horiz-adv-x="440" d="M160 130C160 160 155 181 144 193C133 204 115 210 90 210L80 220L80 280L90 290C115 290 133 296 144 308C155 319 160 340 160 370L160 550C160 575 164 597 172 616C180 635 191 650 205 663C219 675 235 684 253 691C271 697 290 700 310 700L350 700L360 690L360 620L350 610L310 610C295 610 283 605 274 595C265 585 260 570 260 550L260 360C260 335 256 313 247 295C238 277 225 265 210 260L210 240C225 235 238 223 247 205C256 187 260 165 260 140L260 -50C260 -70 265 -85 274 -95C283 -105 295 -110 310 -110L350 -110L360 -120L360 -190L350 -200L310 -200C290 -200 271 -197 253 -191C235 -184 219 -175 205 -163C191 -150 180 -135 172 -116C164 -97 160 -75 160 -50L160 130Z"/>
<glyph unicode="&#x7c;" horiz-adv-x="340" d="M210 -200L130 -200L120 -190L120 690L130 700L210 700L220 690L220 -190L210 -200Z"/>
<glyph unicode="&#x7d;" horiz-adv-x="440" d="M280 -50C280 -75 276 -97 268 -116C260 -135 249 -150 235 -163C221 -175 205 -184 187 -191C169 -197 150 -200 130 -200L90 -200L80 -190L80 -120L90 -110L130 -110C145 -110 158 -105 167 -95C176 -85 180 -70 180 -50L180 140C180 165 185 187 194 205C203 223 215 235 230 240L230 260C215 265 203 277 194 295C185 313 180 335 180 360L180 550C180 570 176 585 167 595C158 605 145 610 130 610L90 610L80 620L80 690L90 700L130 700C150 700 169 697 187 691C205 684 221 675 235 663C249 650 260 635 268 616C276 597 280 575 280 550L280 370C280 340 285 319 296 308C307 296 325 290 350 290L360 280L360 220L350 210C325 210 307 204 296 193C285 181 280 160 280 130L280 -50Z"/>
<glyph unicode="&#x7e;" horiz-adv-x="620" d="M270 210C255 225 241 238 230 247C219 256 205 260 190 260C170 260 157 253 150 239C143 225 140 205 140 180L130 170L70 170L60 180C60 205 63 228 68 250C73 272 82 291 94 308C106 324 122 337 141 346C160 355 183 360 210 360C227 360 243 358 257 354C271 349 284 344 295 337C306 330 317 322 326 314C335 305 343 297 350 290C365 275 379 263 390 254C401 245 415 240 430 240C450 240 463 247 470 261C477 275 480 295 480 320L490 330L550 330L560 320C560 295 557 271 552 250C547 228 538 209 526 193C514 176 499 163 480 154C461 145 437 140 410 140C393 140 377 142 363 147C349 151 336 157 325 164C314 171 304 178 295 187C286 195 277 203 270 210Z"/>
<glyph unicode="&#xa0;" horiz-adv-x="260" />
<glyph unicode="&#xa1;" horiz-adv-x="360" d="M150 290L160 300L200 300L210 290L230 100L230 -190L220 -200L140 -200L130 -190L130 100L150 290ZM130 500L230 500L240 490L240 390L230 380L130 380L120 390L120 490L130 500Z"/>
<glyph unicode="&#xa2;" horiz-adv-x="520" d="M130 250C130 220 133 195 140 174C147 153 155 137 164 124C173 111 183 101 194 94C204 87 213 83 220 80L230 90L230 410L220 420C213 417 204 413 194 406C183 399 173 390 164 377C155 364 147 347 140 326C133 305 130 280 130 250ZM310 90L320 80C340 85 355 95 366 109C377 123 385 140 390 160L400 170L480 170L490 160C487 133 480 109 469 89C457 68 443 51 427 38C411 24 394 13 375 6C356 -2 337 -7 320 -10L310 -20L310 -60L300 -70L240 -70L230 -60L230 -20L220 -10C203 -7 183 -1 161 9C139 18 118 33 99 53C80 72 63 98 50 130C37 162 30 202 30 250C30 297 37 337 50 369C63 401 80 427 99 447C118 467 139 482 161 492C183 501 203 507 220 510L230 520L230 560L240 570L300 570L310 560L310 520L320 510C337 507 356 502 375 495C394 487 411 476 427 463C443 449 457 432 469 412C480 391 487 367 490 340L480 330L400 330L390 340C385 360 377 377 366 391C355 405 340 415 320 420L310 410L310 90Z"/>
<glyph unicode="&#xa3;" horiz-adv-x="600" d="M430 280L230 280L220 270L220 190C220 165 216 145 208 130C199 115 190 105 180 100L180 90L560 90L570 80L570 10L560 0L40 0L30 10L30 80L40 90L50 90C75 90 93 98 104 113C115 128 120 150 120 180L120 270L110 280L50 280L40 290L40 350L50 360L110 360L120 370L120 490C120 523 124 553 133 580C142 607 155 630 173 649C190 668 212 683 238 694C264 705 295 710 330 710C400 710 451 691 483 654C514 617 530 565 530 500L520 490L440 490L430 500C430 540 423 570 410 590C397 610 370 620 330 620C290 620 262 608 245 585C228 562 220 530 220 490L220 370L230 360L430 360L440 350L440 290L430 280Z"/>
<glyph unicode="&#xa4;" horiz-adv-x="640" d="M60 250C60 280 64 307 73 331C81 355 90 375 100 390L100 400L40 460L40 470L100 530L110 530L170 470L180 470C195 480 215 489 239 498C263 506 290 510 320 510C350 510 377 506 401 498C425 489 445 480 460 470L470 470L530 530L540 530L600 470L600 460L540 400L540 390C550 375 559 355 568 331C576 307 580 280 580 250C580 220 576 193 568 169C559 145 550 125 540 110L540 100L600 40L600 30L540 -30L530 -30L470 30L460 30C445 20 425 11 401 3C377 -6 350 -10 320 -10C290 -10 263 -6 239 3C215 11 195 20 180 30L170 30L110 -30L100 -30L40 30L40 40L100 100L100 110C90 125 81 145 73 169C64 193 60 220 60 250ZM160 250C160 227 164 206 171 186C178 165 189 147 203 132C216 116 233 103 253 94C272 85 295 80 320 80C345 80 367 85 387 94C407 103 424 116 438 132C451 147 462 165 469 186C476 206 480 227 480 250C480 273 476 294 469 315C462 335 451 353 438 369C424 384 407 397 387 406C367 415 345 420 320 420C295 420 272 415 253 406C233 397 216 384 203 369C189 353 178 335 171 315C164 294 160 273 160 250Z"/>
<glyph unicode="&#xa5;" horiz-adv-x="560" d="M330 10L320 0L240 0L230 10L230 120L220 130L110 130L100 140L100 200L110 210L220 210L230 220L230 240L210 280L190 290L80 290L70 300L70 360L80 370L160 370L160 380L40 620L40 690L50 700L100 700L120 690L270 370L290 370L440 690L460 700L510 700L520 690L520 620L400 380L400 370L480 370L490 360L490 300L480 290L370 290L350 280L330 240L330 220L340 210L450 210L460 200L460 140L450 130L340 130L330 120L330 10Z"/>
<glyph unicode="&#xa6;" horiz-adv-x="340" d="M210 410L130 410L120 420L120 690L130 700L210 700L220 690L220 420L210 410ZM210 0L130 0L120 10L120 280L130 290L210 290L220 280L220 10L210 0Z"/>
<glyph unicode="&#xa7;" horiz-adv-x="640" d="M140 300C140 267 149 243 167 226C185 209 208 195 236 185C264 175 295 167 330 160C364 153 397 143 430 130L440 130C451 133 461 138 470 145C477 151 484 160 491 172C497 184 500 200 500 220C500 245 491 266 474 281C457 296 434 308 407 319C380 329 349 339 314 348C279 357 245 367 210 380L200 380C188 377 178 372 170 366C163 361 156 353 150 342C143 331 140 317 140 300ZM520 80C530 70 541 57 553 40C564 23 570 0 570 -30C570 -85 551 -129 514 -162C476 -194 415 -210 330 -210C290 -210 254 -206 222 -199C190 -191 163 -179 140 -162C117 -145 100 -123 88 -96C76 -69 70 -37 70 0L80 10L160 10L170 0C170 -20 172 -38 177 -53C181 -68 189 -80 201 -90C213 -100 229 -108 250 -113C271 -118 297 -120 330 -120C380 -120 416 -113 438 -98C459 -83 470 -60 470 -30C470 -7 459 12 438 25C417 38 390 49 359 58C327 67 292 76 255 85C218 94 183 107 152 123C120 138 93 159 72 186C51 212 40 247 40 290C40 315 44 336 53 353C61 369 70 382 80 392C91 403 105 413 120 420L120 430C110 440 99 453 88 470C76 487 70 510 70 540C70 590 90 631 131 663C172 694 235 710 320 710C357 710 391 706 422 699C453 691 479 679 501 662C523 645 540 623 552 596C564 569 570 537 570 500L560 490L480 490L470 500C470 520 468 538 464 553C459 568 451 580 439 590C427 600 411 608 390 613C369 618 343 620 310 620C283 620 260 618 242 615C224 611 210 606 199 599C188 592 181 583 177 574C172 564 170 553 170 540C170 517 181 498 202 485C223 472 250 460 282 451C313 441 348 431 385 422C422 412 457 399 489 383C520 367 547 346 568 321C589 296 600 262 600 220C600 195 596 174 588 157C579 140 570 127 560 117C548 105 535 96 520 90L520 80Z"/>
<glyph unicode="&#xa8;" horiz-adv-x="500" d="M380 580L300 580L290 590L290 670L300 680L380 680L390 670L390 590L380 580ZM200 580L120 580L110 590L110 670L120 680L200 680L210 670L210 590L200 580Z"/>
<glyph unicode="&#xa9;" horiz-adv-x="840" d="M420 560C440 560 460 558 481 554C501 549 519 541 536 530C553 519 567 503 579 484C590 465 597 440 600 410L590 400L530 400L520 410C517 427 513 441 507 452C501 463 494 471 485 477C476 482 467 486 456 488C445 489 433 490 420 490C405 490 390 488 377 484C364 479 352 472 342 461C332 450 324 436 319 418C313 400 310 377 310 350C310 323 313 300 319 282C324 264 332 250 342 239C352 228 364 221 377 217C390 212 405 210 420 210C433 210 445 211 456 213C467 214 476 218 485 224C494 229 501 237 507 248C513 259 517 273 520 290L530 300L590 300L600 290C597 260 590 235 579 216C567 197 553 181 536 170C519 159 501 151 481 147C460 142 440 140 420 140C393 140 367 144 344 152C321 159 301 172 284 189C267 206 253 227 244 254C235 281 230 313 230 350C230 387 235 419 244 446C253 473 267 495 284 512C301 529 321 541 344 549C367 556 393 560 420 560ZM140 350C140 310 147 273 161 239C175 204 195 175 220 150C245 125 274 105 309 91C343 77 380 70 420 70C460 70 497 77 531 91C565 105 595 125 620 150C645 175 664 204 679 239C693 273 700 310 700 350C700 390 693 427 679 461C664 495 645 525 620 550C595 575 565 594 531 609C497 623 460 630 420 630C380 630 343 623 309 609C274 594 245 575 220 550C195 525 175 495 161 461C147 427 140 390 140 350ZM60 350C60 400 69 447 88 491C107 534 132 572 165 605C198 638 236 663 280 682C323 701 370 710 420 710C470 710 517 701 561 682C604 663 642 638 675 605C708 572 733 534 752 491C771 447 780 400 780 350C780 300 771 253 752 210C733 166 708 128 675 95C642 62 604 37 561 18C517 -1 470 -10 420 -10C370 -10 323 -1 280 18C236 37 198 62 165 95C132 128 107 166 88 210C69 253 60 300 60 350Z"/>
<glyph unicode="&#xaa;" horiz-adv-x="560" d="M470 340L440 340C425 340 412 343 401 348C390 353 380 360 370 370L360 370C357 367 353 364 348 360C343 355 336 351 327 347C318 342 308 338 295 335C282 332 267 330 250 330C200 330 159 347 128 380C96 413 80 460 80 520C80 553 85 581 94 605C103 628 116 648 132 664C147 679 165 691 186 699C206 706 227 710 250 710C275 710 295 706 310 699C325 692 335 685 340 680L350 680L350 690L360 700L430 700L440 690L440 450C440 440 442 433 446 428C450 423 455 420 460 420L470 420L480 410L480 350L470 340ZM170 520C170 484 178 457 193 438C208 419 230 410 260 410C290 410 313 419 328 438C343 457 350 484 350 520C350 556 343 583 328 602C313 621 290 630 260 630C230 630 208 621 193 602C178 583 170 556 170 520ZM460 260L110 260L100 270L100 280L110 290L460 290L470 280L470 270L460 260Z"/>
<glyph unicode="&#xab;" horiz-adv-x="700" d="M350 30L270 30L250 40L90 200L80 220L80 280L90 300L250 460L270 470L350 470L360 460L360 430L180 260L180 240L360 70L360 40L350 30ZM610 30L530 30L510 40L350 200L340 220L340 280L350 300L510 460L530 470L610 470L620 460L620 430L440 260L440 240L620 70L620 40L610 30Z"/>
<glyph unicode="&#xac;" horiz-adv-x="580" d="M490 90L420 90L410 100L410 200L400 210L70 210L60 220L60 290L70 300L490 300L500 290L500 100L490 90Z"/>
<glyph unicode="&#xad;" horiz-adv-x="410" d="M340 210L70 210L60 220L60 290L70 300L340 300L350 290L350 220L340 210Z"/>
<glyph unicode="&#xae;" horiz-adv-x="840" d="M520 430C520 445 516 458 507 467C498 476 485 480 470 480L350 480L340 470L340 390L350 380L470 380C485 380 498 385 507 394C516 403 520 415 520 430ZM600 210L600 160L590 150L560 150L540 160L430 300L410 310L350 310L340 300L340 160L330 150L270 150L260 160L260 540L270 550L470 550C510 550 542 540 565 520C588 500 600 470 600 430C600 405 594 383 583 364C571 345 550 330 520 320L520 310L600 210ZM140 350C140 310 147 273 161 239C175 204 195 175 220 150C245 125 274 105 309 91C343 77 380 70 420 70C460 70 497 77 531 91C565 105 595 125 620 150C645 175 664 204 679 239C693 273 700 310 700 350C700 390 693 427 679 461C664 495 645 525 620 550C595 575 565 594 531 609C497 623 460 630 420 630C380 630 343 623 309 609C274 594 245 575 220 550C195 525 175 495 161 461C147 427 140 390 140 350ZM60 350C60 400 69 447 88 491C107 534 132 572 165 605C198 638 236 663 280 682C323 701 370 710 420 710C470 710 517 701 561 682C604 663 642 638 675 605C708 572 733 534 752 491C771 447 780 400 780 350C780 300 771 253 752 210C733 166 708 128 675 95C642 62 604 37 561 18C517 -1 470 -10 420 -10C370 -10 323 -1 280 18C236 37 198 62 165 95C132 128 107 166 88 210C69 253 60 300 60 350Z"/>
<glyph unicode="&#xaf;" horiz-adv-x="500" d="M400 580L100 580L90 590L90 650L100 660L400 660L410 650L410 590L400 580Z"/>
<glyph unicode="&#xb0;" horiz-adv-x="580" d="M80 500C80 530 85 558 96 584C107 609 121 631 140 650C159 669 181 683 207 694C232 705 260 710 290 710C320 710 348 705 374 694C399 683 421 669 440 650C459 631 473 609 484 584C495 558 500 530 500 500C500 470 495 442 484 417C473 391 459 369 440 350C421 331 399 317 374 306C348 295 320 290 290 290C260 290 232 295 207 306C181 317 159 331 140 350C121 369 107 391 96 417C85 442 80 470 80 500ZM170 500C170 460 181 428 203 405C225 382 254 370 290 370C326 370 355 382 377 405C399 428 410 460 410 500C410 540 399 572 377 595C355 618 326 630 290 630C254 630 225 618 203 595C181 572 170 540 170 500Z"/>
<glyph unicode="&#xb1;" horiz-adv-x="580" d="M510 280L350 280L340 270L340 160L330 150L260 150L250 160L250 270L240 280L80 280L70 290L70 360L80 370L240 370L250 380L250 490L260 500L330 500L340 490L340 380L350 370L510 370L520 360L520 290L510 280ZM510 0L80 0L70 10L70 80L80 90L510 90L520 80L520 10L510 0Z"/>
<glyph unicode="&#xb2;" horiz-adv-x="360" d="M310 340L60 340L50 350L50 410L60 430L150 490C165 500 177 509 186 517C195 525 203 533 208 540C213 547 216 555 218 563C219 571 220 580 220 590C220 600 217 609 212 618C206 626 195 630 180 630C165 630 154 626 149 618C143 609 140 600 140 590L130 580L60 580L50 590C50 625 60 654 81 677C102 699 135 710 180 710C225 710 258 699 279 677C300 654 310 625 310 590C310 555 303 529 290 510C277 491 260 475 240 460L200 430L200 420L310 420L320 410L320 350L310 340Z"/>
<glyph unicode="&#xb3;" horiz-adv-x="360" d="M130 500L130 550L190 610L190 620L70 620L60 630L60 690L70 700L290 700L300 690L300 630L290 610L240 560L240 550C256 549 269 545 280 539C290 534 299 525 308 513C316 500 320 483 320 460C320 443 317 426 311 411C305 395 296 381 284 369C272 357 257 348 240 341C223 334 203 330 180 330C134 330 99 341 76 363C52 385 40 414 40 450L50 460L120 460L130 450C130 435 135 424 144 419C153 413 165 410 180 410C195 410 208 415 217 424C226 433 230 445 230 460C230 471 227 481 220 488C213 495 204 498 194 498C185 498 177 495 170 490L140 490L130 500Z"/>
<glyph unicode="&#xb4;" horiz-adv-x="500" d="M230 570L210 560L160 560L150 570L150 590L240 690L260 700L330 700L340 690L340 670L230 570Z"/>
<glyph unicode="&#xb5;" horiz-adv-x="580" d="M390 30C385 27 381 23 377 20C372 17 367 13 362 10C353 5 342 0 331 -4C319 -8 305 -10 290 -10C275 -10 261 -8 249 -4C236 0 226 5 217 10C207 15 198 22 190 30L180 30L180 -190L170 -200L90 -200L80 -190L80 490L90 500L170 500L180 490L180 230C180 180 189 143 208 118C227 93 254 80 290 80C326 80 353 93 372 118C391 143 400 180 400 230L400 490L410 500L490 500L500 490L500 10L490 0L420 0L410 10L400 30L390 30Z"/>
<glyph unicode="&#xb6;" horiz-adv-x="710" d="M370 -200L290 -200L280 -190L280 290L270 300C240 300 212 304 187 312C161 319 139 331 120 348C101 364 87 385 76 410C65 435 60 465 60 500C60 535 65 565 76 590C87 615 102 636 121 653C140 669 164 681 191 689C218 696 247 700 280 700L650 700L660 690L660 620L650 610L590 610L580 600L580 -190L570 -200L490 -200L480 -190L480 600L470 610L390 610L380 600L380 -190L370 -200Z"/>
<glyph unicode="&#xb7;" horiz-adv-x="280" d="M190 200L90 200L80 210L80 310L90 320L190 320L200 310L200 210L190 200Z"/>
<glyph unicode="&#xb8;" horiz-adv-x="500" d="M200 -100L190 -90L190 -80L270 0L310 0L240 -70L250 -70C259 -65 266 -63 271 -62C276 -61 280 -60 285 -60L290 -60C305 -60 319 -65 332 -76C344 -87 350 -105 350 -130C350 -155 341 -175 323 -189C304 -203 280 -210 250 -210C230 -210 214 -207 201 -202C188 -196 175 -185 160 -170L160 -160L170 -150L180 -150C190 -160 200 -166 211 -168C222 -169 235 -170 250 -170C265 -170 278 -167 287 -162C296 -156 300 -145 300 -130C300 -115 296 -104 287 -99C278 -93 265 -90 250 -90L245 -90C240 -90 236 -91 231 -92C226 -93 219 -95 210 -100L200 -100Z"/>
<glyph unicode="&#xb9;" horiz-adv-x="360" d="M50 410L60 420L140 420L150 430L150 580L140 580L100 540L70 540L60 550L60 610L140 690L160 700L230 700L240 690L240 430L250 420L310 420L320 410L320 350L310 340L60 340L50 350L50 410Z"/>
<glyph unicode="&#xba;" horiz-adv-x="520" d="M260 330C230 330 204 335 181 344C158 353 140 367 125 384C110 401 98 421 91 444C84 467 80 493 80 520C80 547 84 573 91 596C98 619 110 640 125 657C140 674 158 687 181 696C204 705 230 710 260 710C290 710 316 705 339 696C361 687 380 674 395 657C410 640 421 619 429 596C436 573 440 547 440 520C440 493 436 467 429 444C421 421 410 401 395 384C380 367 361 353 339 344C316 335 290 330 260 330ZM170 520C170 484 178 457 193 438C208 419 230 410 260 410C290 410 313 419 328 438C343 457 350 484 350 520C350 556 343 583 328 602C313 621 290 630 260 630C230 630 208 621 193 602C178 583 170 556 170 520ZM410 260L110 260L100 270L100 280L110 290L410 290L420 280L420 270L410 260Z"/>
<glyph unicode="&#xbb;" horiz-adv-x="700" d="M80 40L80 70L260 240L260 260L80 430L80 460L90 470L170 470L190 460L350 300L360 280L360 220L350 200L190 40L170 30L90 30L80 40ZM340 40L340 70L520 240L520 260L340 430L340 460L350 470L430 470L450 460L610 300L620 280L620 220L610 200L450 40L430 30L350 30L340 40Z"/>
<glyph unicode="&#xbc;" horiz-adv-x="860" d="M750 0L680 0L670 10L670 60L660 70L480 70L470 80L470 160L480 180L650 350L670 360L750 360L760 350L760 10L750 0ZM670 250L660 250L570 160L570 150L660 150L670 160L670 250ZM50 410L60 420L140 420L150 430L150 580L140 580L100 540L70 540L60 550L60 610L140 690L160 700L230 700L240 690L240 430L250 420L310 420L320 410L320 350L310 340L60 340L50 350L50 410ZM260 10L250 0L210 0L200 10L200 80L600 690L610 700L650 700L660 690L660 620L260 10Z"/>
<glyph unicode="&#xbd;" horiz-adv-x="860" d="M790 0L540 0L530 10L530 70L540 90L630 150C645 160 657 169 666 177C675 185 683 193 688 200C693 207 696 215 698 223C699 231 700 240 700 250C700 260 697 269 692 278C686 286 675 290 660 290C645 290 634 286 629 278C623 269 620 260 620 250L610 240L540 240L530 250C530 285 540 314 561 337C582 359 615 370 660 370C705 370 738 359 759 337C780 314 790 285 790 250C790 215 783 189 770 170C757 151 740 135 720 120L680 90L680 80L790 80L800 70L800 10L790 0ZM50 410L60 420L140 420L150 430L150 580L140 580L100 540L70 540L60 550L60 610L140 690L160 700L230 700L240 690L240 430L250 420L310 420L320 410L320 350L310 340L60 340L50 350L50 410ZM260 10L250 0L210 0L200 10L200 80L600 690L610 700L650 700L660 690L660 620L260 10Z"/>
<glyph unicode="&#xbe;" horiz-adv-x="860" d="M260 10L250 0L210 0L200 10L200 80L600 690L610 700L650 700L660 690L660 620L260 10ZM750 0L680 0L670 10L670 60L660 70L480 70L470 80L470 160L480 180L650 350L670 360L750 360L760 350L760 10L750 0ZM670 250L660 250L570 160L570 150L660 150L670 160L670 250ZM150 500L150 550L210 610L210 620L90 620L80 630L80 690L90 700L310 700L320 690L320 630L310 610L260 560L260 550C276 549 289 545 300 539C310 534 319 525 328 513C336 500 340 483 340 460C340 443 337 426 331 411C325 395 316 381 304 369C292 357 277 348 260 341C243 334 223 330 200 330C154 330 119 341 96 363C72 385 60 414 60 450L70 460L140 460L150 450C150 435 155 424 164 419C173 413 185 410 200 410C215 410 228 415 237 424C246 433 250 445 250 460C250 471 247 481 240 488C233 495 224 498 214 498C205 498 197 495 190 490L160 490L150 500Z"/>
<glyph unicode="&#xbf;" horiz-adv-x="600" d="M80 -20C80 5 82 26 87 45C92 63 99 79 108 94C117 108 127 121 139 133C151 145 165 157 180 170C195 183 207 194 218 203C228 212 236 222 243 231C249 240 253 250 256 261C259 272 260 285 260 300L270 310L350 310L360 300C360 280 359 262 356 247C353 231 349 217 343 204C336 191 328 178 318 167C307 155 295 143 280 130C265 117 251 106 239 95C227 84 217 74 208 63C199 52 192 39 187 26C182 13 180 -3 180 -20C180 -33 182 -45 186 -57C190 -69 197 -80 206 -89C215 -98 228 -106 243 -112C258 -117 277 -120 300 -120C345 -120 376 -108 394 -85C411 -62 420 -30 420 10L430 20L510 20L520 10C520 -23 516 -53 507 -80C498 -107 484 -130 466 -149C448 -168 425 -183 398 -194C370 -205 337 -210 300 -210C267 -210 238 -206 211 -197C184 -188 160 -176 141 -160C122 -144 107 -124 96 -101C85 -77 80 -50 80 -20ZM260 500L360 500L370 490L370 390L360 380L260 380L250 390L250 490L260 500Z"/>
<glyph unicode="&#xc0;" horiz-adv-x="630" d="M600 0L540 0L530 10L470 160L450 170L180 170L160 160L100 10L90 0L30 0L20 10L20 80L260 690L270 700L360 700L370 690L610 80L610 10L600 0ZM320 550L310 550L200 270L210 260L420 260L430 270L320 550ZM370 760L320 760L300 770L190 870L190 890L200 900L270 900L290 890L380 790L380 770L370 760Z"/>
<glyph unicode="&#xc1;" horiz-adv-x="630" d="M600 0L540 0L530 10L470 160L450 170L180 170L160 160L100 10L90 0L30 0L20 10L20 80L260 690L270 700L360 700L370 690L610 80L610 10L600 0ZM320 550L310 550L200 270L210 260L420 260L430 270L320 550ZM330 770L310 760L260 760L250 770L250 790L340 890L360 900L430 900L440 890L440 870L330 770Z"/>
<glyph unicode="&#xc2;" horiz-adv-x="630" d="M600 0L540 0L530 10L470 160L450 170L180 170L160 160L100 10L90 0L30 0L20 10L20 80L260 690L270 700L360 700L370 690L610 80L610 10L600 0ZM320 550L310 550L200 270L210 260L420 260L430 270L320 550ZM465 760L415 760L395 770L325 830L305 830L235 770L215 760L165 760L155 770L155 790L245 890L265 900L365 900L385 890L475 790L475 770L465 760Z"/>
<glyph unicode="&#xc3;" horiz-adv-x="630" d="M600 0L540 0L530 10L470 160L450 170L180 170L160 160L100 10L90 0L30 0L20 10L20 80L260 690L270 700L360 700L370 690L610 80L610 10L600 0ZM320 550L310 550L200 270L210 260L420 260L430 270L320 550ZM380 750C360 750 343 754 330 761C317 768 305 776 295 785C285 794 276 802 268 809C259 816 250 820 240 820C225 820 214 816 209 807C203 798 200 785 200 770L190 760L160 760L150 770C150 785 152 799 156 812C160 825 166 837 174 847C182 857 192 865 205 871C218 877 233 880 250 880C270 880 287 876 300 869C313 862 325 854 335 845C345 836 354 828 363 821C371 814 380 810 390 810C405 810 416 815 422 824C427 833 430 845 430 860L440 870L470 870L480 860C480 830 472 804 456 783C440 761 415 750 380 750Z"/>
<glyph unicode="&#xc4;" horiz-adv-x="630" d="M600 0L540 0L530 10L470 160L450 170L180 170L160 160L100 10L90 0L30 0L20 10L20 80L260 690L270 700L360 700L370 690L610 80L610 10L600 0ZM320 550L310 550L200 270L210 260L420 260L430 270L320 550ZM445 780L365 780L355 790L355 870L365 880L445 880L455 870L455 790L445 780ZM265 780L185 780L175 790L175 870L185 880L265 880L275 870L275 790L265 780Z"/>
<glyph unicode="&#xc5;" horiz-adv-x="630" d="M600 0L540 0L530 10L470 160L450 170L180 170L160 160L100 10L90 0L30 0L20 10L20 80L260 690L270 700L360 700L370 690L610 80L610 10L600 0ZM320 550L310 550L200 270L210 260L420 260L430 270L320 550ZM415 810C415 785 406 763 388 746C369 729 345 720 315 720C285 720 261 729 243 746C224 763 215 785 215 810C215 835 224 857 243 874C261 891 285 900 315 900C345 900 369 891 388 874C406 857 415 835 415 810ZM355 810C355 820 352 829 347 838C341 846 330 850 315 850C300 850 289 846 284 838C278 829 275 820 275 810C275 800 278 791 284 783C289 774 300 770 315 770C330 770 341 774 347 783C352 791 355 800 355 810Z"/>
<glyph unicode="&#xc6;" horiz-adv-x="960" d="M890 0L470 0L460 10L460 160L450 170L200 170L180 160L100 10L90 0L30 0L20 10L20 80L360 690L370 700L890 700L900 690L900 620L890 610L570 610L560 600L560 410L570 400L870 400L880 390L880 320L870 310L570 310L560 300L560 100L570 90L890 90L900 80L900 10L890 0ZM460 600L450 610L430 610L420 600L240 270L250 260L450 260L460 270L460 600Z"/>
<glyph unicode="&#xc7;" horiz-adv-x="690" d="M390 -20L340 -70L350 -70C359 -65 366 -63 371 -62C376 -61 380 -60 385 -60L390 -60C405 -60 419 -65 432 -76C444 -87 450 -105 450 -130C450 -155 441 -175 423 -189C404 -203 380 -210 350 -210C330 -210 314 -207 301 -202C288 -196 275 -185 260 -170L260 -160L270 -150L280 -150C290 -160 300 -166 311 -168C322 -169 335 -170 350 -170C365 -170 378 -167 387 -162C396 -156 400 -145 400 -130C400 -115 396 -104 387 -99C378 -93 365 -90 350 -90L345 -90C340 -90 336 -91 331 -92C326 -93 319 -95 310 -100L300 -100L290 -90L290 -80L350 -20L350 -10C305 -7 263 3 226 20C188 37 155 60 128 91C100 122 78 159 63 202C48 245 40 295 40 350C40 403 47 451 62 495C77 539 98 577 126 609C154 641 189 666 230 684C271 701 317 710 370 710C410 710 446 705 479 694C511 683 539 669 563 650C586 631 605 609 620 584C635 558 645 530 650 500L640 490L560 490L550 500C540 536 520 565 490 587C460 609 420 620 370 620C333 620 300 614 271 601C242 588 218 569 199 545C180 521 165 493 155 460C145 427 140 390 140 350C140 310 145 274 155 241C165 208 180 179 199 155C218 131 242 113 271 100C300 87 333 80 370 80C397 80 421 84 442 91C462 98 479 107 494 119C508 131 520 145 529 161C538 176 545 193 550 210L560 220L640 220L650 210C645 175 634 144 618 118C601 91 582 69 560 51C537 33 513 19 487 9C460 -1 435 -7 410 -10L390 -20Z"/>
<glyph unicode="&#xc8;" horiz-adv-x="610" d="M540 0L90 0L80 10L80 690L90 700L540 700L550 690L550 620L540 610L190 610L180 600L180 410L190 400L520 400L530 390L530 320L520 310L190 310L180 300L180 100L190 90L540 90L550 80L550 10L540 0ZM370 760L320 760L300 770L190 870L190 890L200 900L270 900L290 890L380 790L380 770L370 760Z"/>
<glyph unicode="&#xc9;" horiz-adv-x="610" d="M540 0L90 0L80 10L80 690L90 700L540 700L550 690L550 620L540 610L190 610L180 600L180 410L190 400L520 400L530 390L530 320L520 310L190 310L180 300L180 100L190 90L540 90L550 80L550 10L540 0ZM330 770L310 760L260 760L250 770L250 790L340 890L360 900L430 900L440 890L440 870L330 770Z"/>
<glyph unicode="&#xca;" horiz-adv-x="610" d="M540 0L90 0L80 10L80 690L90 700L540 700L550 690L550 620L540 610L190 610L180 600L180 410L190 400L520 400L530 390L530 320L520 310L190 310L180 300L180 100L190 90L540 90L550 80L550 10L540 0ZM470 760L420 760L400 770L330 830L310 830L240 770L220 760L170 760L160 770L160 790L250 890L270 900L370 900L390 890L480 790L480 770L470 760Z"/>
<glyph unicode="&#xcb;" horiz-adv-x="610" d="M540 0L90 0L80 10L80 690L90 700L540 700L550 690L550 620L540 610L190 610L180 600L180 410L190 400L520 400L530 390L530 320L520 310L190 310L180 300L180 100L190 90L540 90L550 80L550 10L540 0ZM450 780L370 780L360 790L360 870L370 880L450 880L460 870L460 790L450 780ZM270 780L190 780L180 790L180 870L190 880L270 880L280 870L280 790L270 780Z"/>
<glyph unicode="&#xcc;" horiz-adv-x="260" d="M170 0L90 0L80 10L80 690L90 700L170 700L180 690L180 10L170 0ZM181 760L131 760L111 770L1 870L1 890L11 900L81 900L101 890L191 790L191 770L181 760Z"/>
<glyph unicode="&#xcd;" horiz-adv-x="260" d="M170 0L90 0L80 10L80 690L90 700L170 700L180 690L180 10L170 0ZM151 770L131 760L81 760L71 770L71 790L161 890L181 900L251 900L261 890L261 870L151 770Z"/>
<glyph unicode="&#xce;" horiz-adv-x="260" d="M170 0L90 0L80 10L80 690L90 700L170 700L180 690L180 10L170 0ZM281 760L231 760L211 770L141 830L121 830L51 770L31 760L-19 760L-29 770L-29 790L61 890L81 900L181 900L201 890L291 790L291 770L281 760Z"/>
<glyph unicode="&#xcf;" horiz-adv-x="260" d="M170 0L90 0L80 10L80 690L90 700L170 700L180 690L180 10L170 0ZM261 780L181 780L171 790L171 870L181 880L261 880L271 870L271 790L261 780ZM81 780L1 780L-9 790L-9 870L1 880L81 880L91 870L91 790L81 780Z"/>
<glyph unicode="&#xd0;" horiz-adv-x="670" d="M0 390L10 400L70 400L80 410L80 690L90 700L300 700C363 700 415 692 457 675C499 658 533 635 559 604C584 573 603 537 614 494C625 451 630 403 630 350C630 297 625 250 614 207C603 164 584 127 559 96C533 65 499 42 457 25C415 8 363 0 300 0L90 0L80 10L80 300L70 310L10 310L0 320L0 390ZM530 350C530 393 526 430 519 463C512 495 499 522 481 544C463 566 439 583 408 594C377 605 337 610 290 610L190 610L180 600L180 410L190 400L340 400L350 390L350 320L340 310L190 310L180 300L180 100L190 90L290 90C337 90 377 96 408 107C439 118 463 134 481 156C499 178 512 205 519 238C526 270 530 307 530 350Z"/>
<glyph unicode="&#xd1;" horiz-adv-x="730" d="M640 0L550 0L530 10L190 530L180 530L180 10L170 0L90 0L80 10L80 690L90 700L180 700L200 690L540 170L550 170L550 690L560 700L640 700L650 690L650 10L640 0ZM430 750C410 750 393 754 380 761C367 768 355 776 345 785C335 794 326 802 318 809C309 816 300 820 290 820C275 820 264 816 259 807C253 798 250 785 250 770L240 760L210 760L200 770C200 785 202 799 206 812C210 825 216 837 224 847C232 857 242 865 255 871C268 877 283 880 300 880C320 880 337 876 350 869C363 862 375 854 385 845C395 836 404 828 413 821C421 814 430 810 440 810C455 810 466 815 472 824C477 833 480 845 480 860L490 870L520 870L530 860C530 830 522 804 506 783C490 761 465 750 430 750Z"/>
<glyph unicode="&#xd2;" horiz-adv-x="740" d="M40 350C40 403 47 451 62 495C77 539 98 577 126 609C154 641 189 666 230 684C271 701 317 710 370 710C423 710 470 701 511 684C552 666 586 641 614 609C642 577 663 539 678 495C693 451 700 403 700 350C700 297 693 249 678 205C663 161 642 123 614 91C586 59 552 34 511 17C470 -1 423 -10 370 -10C317 -10 271 -1 230 17C189 34 154 59 126 91C98 123 77 161 62 205C47 249 40 297 40 350ZM140 350C140 310 145 274 155 241C165 208 180 179 199 155C218 131 242 113 271 100C300 87 333 80 370 80C407 80 440 87 469 100C498 113 522 131 541 155C560 179 575 208 585 241C595 274 600 310 600 350C600 390 595 427 585 460C575 493 560 521 541 545C522 569 498 588 469 601C440 614 407 620 370 620C333 620 300 614 271 601C242 588 218 569 199 545C180 521 165 493 155 460C145 427 140 390 140 350ZM440 760L390 760L370 770L260 870L260 890L270 900L340 900L360 890L450 790L450 770L440 760Z"/>
<glyph unicode="&#xd3;" horiz-adv-x="740" d="M40 350C40 403 47 451 62 495C77 539 98 577 126 609C154 641 189 666 230 684C271 701 317 710 370 710C423 710 470 701 511 684C552 666 586 641 614 609C642 577 663 539 678 495C693 451 700 403 700 350C700 297 693 249 678 205C663 161 642 123 614 91C586 59 552 34 511 17C470 -1 423 -10 370 -10C317 -10 271 -1 230 17C189 34 154 59 126 91C98 123 77 161 62 205C47 249 40 297 40 350ZM140 350C140 310 145 274 155 241C165 208 180 179 199 155C218 131 242 113 271 100C300 87 333 80 370 80C407 80 440 87 469 100C498 113 522 131 541 155C560 179 575 208 585 241C595 274 600 310 600 350C600 390 595 427 585 460C575 493 560 521 541 545C522 569 498 588 469 601C440 614 407 620 370 620C333 620 300 614 271 601C242 588 218 569 199 545C180 521 165 493 155 460C145 427 140 390 140 350ZM370 770L350 760L300 760L290 770L290 790L380 890L400 900L470 900L480 890L480 870L370 770Z"/>
<glyph unicode="&#xd4;" horiz-adv-x="740" d="M40 350C40 403 47 451 62 495C77 539 98 577 126 609C154 641 189 666 230 684C271 701 317 710 370 710C423 710 470 701 511 684C552 666 586 641 614 609C642 577 663 539 678 495C693 451 700 403 700 350C700 297 693 249 678 205C663 161 642 123 614 91C586 59 552 34 511 17C470 -1 423 -10 370 -10C317 -10 271 -1 230 17C189 34 154 59 126 91C98 123 77 161 62 205C47 249 40 297 40 350ZM140 350C140 310 145 274 155 241C165 208 180 179 199 155C218 131 242 113 271 100C300 87 333 80 370 80C407 80 440 87 469 100C498 113 522 131 541 155C560 179 575 208 585 241C595 274 600 310 600 350C600 390 595 427 585 460C575 493 560 521 541 545C522 569 498 588 469 601C440 614 407 620 370 620C333 620 300 614 271 601C242 588 218 569 199 545C180 521 165 493 155 460C145 427 140 390 140 350ZM520 760L470 760L450 770L380 830L360 830L290 770L270 760L220 760L210 770L210 790L300 890L320 900L420 900L440 890L530 790L530 770L520 760Z"/>
<glyph unicode="&#xd5;" horiz-adv-x="740" d="M40 350C40 403 47 451 62 495C77 539 98 577 126 609C154 641 189 666 230 684C271 701 317 710 370 710C423 710 470 701 511 684C552 666 586 641 614 609C642 577 663 539 678 495C693 451 700 403 700 350C700 297 693 249 678 205C663 161 642 123 614 91C586 59 552 34 511 17C470 -1 423 -10 370 -10C317 -10 271 -1 230 17C189 34 154 59 126 91C98 123 77 161 62 205C47 249 40 297 40 350ZM140 350C140 310 145 274 155 241C165 208 180 179 199 155C218 131 242 113 271 100C300 87 333 80 370 80C407 80 440 87 469 100C498 113 522 131 541 155C560 179 575 208 585 241C595 274 600 310 600 350C600 390 595 427 585 460C575 493 560 521 541 545C522 569 498 588 469 601C440 614 407 620 370 620C333 620 300 614 271 601C242 588 218 569 199 545C180 521 165 493 155 460C145 427 140 390 140 350ZM430 750C410 750 393 754 380 761C367 768 355 776 345 785C335 794 326 802 318 809C309 816 300 820 290 820C275 820 264 816 259 807C253 798 250 785 250 770L240 760L210 760L200 770C200 785 202 799 206 812C210 825 216 837 224 847C232 857 242 865 255 871C268 877 283 880 300 880C320 880 337 876 350 869C363 862 375 854 385 845C395 836 404 828 413 821C421 814 430 810 440 810C455 810 466 815 472 824C477 833 480 845 480 860L490 870L520 870L530 860C530 830 522 804 506 783C490 761 465 750 430 750Z"/>
<glyph unicode="&#xd6;" horiz-adv-x="740" d="M40 350C40 403 47 451 62 495C77 539 98 577 126 609C154 641 189 666 230 684C271 701 317 710 370 710C423 710 470 701 511 684C552 666 586 641 614 609C642 577 663 539 678 495C693 451 700 403 700 350C700 297 693 249 678 205C663 161 642 123 614 91C586 59 552 34 511 17C470 -1 423 -10 370 -10C317 -10 271 -1 230 17C189 34 154 59 126 91C98 123 77 161 62 205C47 249 40 297 40 350ZM140 350C140 310 145 274 155 241C165 208 180 179 199 155C218 131 242 113 271 100C300 87 333 80 370 80C407 80 440 87 469 100C498 113 522 131 541 155C560 179 575 208 585 241C595 274 600 310 600 350C600 390 595 427 585 460C575 493 560 521 541 545C522 569 498 588 469 601C440 614 407 620 370 620C333 620 300 614 271 601C242 588 218 569 199 545C180 521 165 493 155 460C145 427 140 390 140 350ZM500 780L420 780L410 790L410 870L420 880L500 880L510 870L510 790L500 780ZM320 780L240 780L230 790L230 870L240 880L320 880L330 870L330 790L320 780Z"/>
<glyph unicode="&#xd7;" horiz-adv-x="610" d="M480 30L470 30L310 190L300 190L140 30L130 30L80 80L80 90L240 250L240 260L80 420L80 430L130 480L140 480L300 320L310 320L470 480L480 480L530 430L530 420L370 260L370 250L530 90L530 80L480 30Z"/>
<glyph unicode="&#xd8;" horiz-adv-x="740" d="M530 540L530 560C510 580 487 595 462 605C437 615 406 620 370 620C333 620 300 614 271 601C242 588 218 569 199 545C180 521 165 493 155 460C145 427 140 390 140 350C140 320 143 291 148 263C153 234 160 210 170 190L180 190L530 540ZM370 -10C320 -10 277 -3 240 13C203 28 170 50 140 80L130 80L90 40L70 30L60 30L50 40L50 60L100 110L100 130C80 160 65 193 55 228C45 263 40 304 40 350C40 403 47 451 62 495C77 539 98 577 126 609C154 641 189 666 230 684C271 701 317 710 370 710C420 710 463 703 500 688C537 673 570 650 600 620L610 620L650 660L670 670L680 670L690 660L690 640L640 590L640 570C660 540 675 507 685 472C695 437 700 396 700 350C700 297 693 249 678 205C663 161 642 123 614 91C586 59 552 34 511 17C470 -1 423 -10 370 -10ZM210 160L210 140C230 120 253 105 278 95C303 85 334 80 370 80C407 80 440 87 469 100C498 113 522 131 541 155C560 179 575 208 585 241C595 274 600 310 600 350C600 380 598 409 593 438C588 466 580 490 570 510L560 510L210 160Z"/>
<glyph unicode="&#xd9;" horiz-adv-x="700" d="M620 250C620 210 614 174 602 142C589 110 572 83 549 60C526 37 497 20 464 8C431 -4 393 -10 350 -10C307 -10 269 -4 236 8C203 20 175 37 152 60C129 83 111 110 99 142C86 174 80 210 80 250L80 690L90 700L170 700L180 690L180 250C180 200 193 159 220 128C247 96 290 80 350 80C410 80 453 96 480 128C507 159 520 200 520 250L520 690L530 700L610 700L620 690L620 250ZM400 760L350 760L330 770L220 870L220 890L230 900L300 900L320 890L410 790L410 770L400 760Z"/>
<glyph unicode="&#xda;" horiz-adv-x="700" d="M620 250C620 210 614 174 602 142C589 110 572 83 549 60C526 37 497 20 464 8C431 -4 393 -10 350 -10C307 -10 269 -4 236 8C203 20 175 37 152 60C129 83 111 110 99 142C86 174 80 210 80 250L80 690L90 700L170 700L180 690L180 250C180 200 193 159 220 128C247 96 290 80 350 80C410 80 453 96 480 128C507 159 520 200 520 250L520 690L530 700L610 700L620 690L620 250ZM370 770L350 760L300 760L290 770L290 790L380 890L400 900L470 900L480 890L480 870L370 770Z"/>
<glyph unicode="&#xdb;" horiz-adv-x="700" d="M620 250C620 210 614 174 602 142C589 110 572 83 549 60C526 37 497 20 464 8C431 -4 393 -10 350 -10C307 -10 269 -4 236 8C203 20 175 37 152 60C129 83 111 110 99 142C86 174 80 210 80 250L80 690L90 700L170 700L180 690L180 250C180 200 193 159 220 128C247 96 290 80 350 80C410 80 453 96 480 128C507 159 520 200 520 250L520 690L530 700L610 700L620 690L620 250ZM500 760L450 760L430 770L360 830L340 830L270 770L250 760L200 760L190 770L190 790L280 890L300 900L400 900L420 890L510 790L510 770L500 760Z"/>
<glyph unicode="&#xdc;" horiz-adv-x="700" d="M620 250C620 210 614 174 602 142C589 110 572 83 549 60C526 37 497 20 464 8C431 -4 393 -10 350 -10C307 -10 269 -4 236 8C203 20 175 37 152 60C129 83 111 110 99 142C86 174 80 210 80 250L80 690L90 700L170 700L180 690L180 250C180 200 193 159 220 128C247 96 290 80 350 80C410 80 453 96 480 128C507 159 520 200 520 250L520 690L530 700L610 700L620 690L620 250ZM480 780L400 780L390 790L390 870L400 880L480 880L490 870L490 790L480 780ZM300 780L220 780L210 790L210 870L220 880L300 880L310 870L310 790L300 780Z"/>
<glyph unicode="&#xdd;" horiz-adv-x="580" d="M340 280L340 10L330 0L250 0L240 10L240 280L30 620L30 690L40 700L80 700L100 690L280 390L300 390L480 690L500 700L540 700L550 690L550 620L340 280ZM300 770L280 760L230 760L220 770L220 790L310 890L330 900L400 900L410 890L410 870L300 770Z"/>
<glyph unicode="&#xde;" horiz-adv-x="620" d="M350 240C396 240 429 248 450 265C470 282 480 310 480 350C480 390 470 418 450 435C429 452 396 460 350 460L190 460L180 450L180 250L190 240L350 240ZM180 140L180 10L170 0L90 0L80 10L80 690L90 700L170 700L180 690L180 560L190 550L350 550C420 550 476 534 518 503C559 471 580 420 580 350C580 315 574 285 563 260C551 235 535 214 514 198C493 181 469 169 441 162C413 154 383 150 350 150L190 150L180 140Z"/>
<glyph unicode="&#xdf;" horiz-adv-x="580" d="M550 210C550 180 546 152 537 125C528 98 515 75 498 55C480 35 458 19 432 8C405 -4 375 -10 340 -10C327 -10 316 -9 305 -7C294 -5 284 -3 276 0C271 1 267 3 263 5C258 6 254 8 250 10L240 20L240 80L250 90C254 89 258 88 263 87C267 86 271 86 276 85C284 84 294 83 305 82C316 81 327 80 340 80C360 80 377 84 391 91C405 98 416 107 425 119C434 131 440 145 444 161C448 176 450 193 450 210C450 230 448 248 444 263C439 278 431 290 420 300C409 310 393 318 374 323C355 328 330 330 300 330L290 340L290 400L300 410C345 410 376 419 394 438C411 456 420 480 420 510C420 525 419 539 416 552C413 565 407 577 398 587C389 597 376 605 361 611C345 617 325 620 300 620C264 620 237 612 218 595C199 578 190 550 190 510L190 10L180 0L100 0L90 10L90 410L80 420L30 420L20 430L20 490L30 500L80 500L90 510C90 570 108 618 143 655C178 692 230 710 300 710C340 710 374 705 402 695C430 684 453 670 470 653C487 635 500 615 508 592C516 569 520 545 520 520C520 480 512 449 495 428C478 406 460 390 440 380L440 370C453 367 466 362 479 355C492 347 503 337 514 324C525 311 533 295 540 276C547 257 550 235 550 210Z"/>
<glyph unicode="&#xe0;" horiz-adv-x="500" d="M440 0L370 0L360 10L350 50L340 50C331 39 320 29 307 20C296 13 281 6 264 -1C247 -7 225 -10 200 -10C144 -10 102 4 73 33C44 61 30 100 30 150C30 177 35 201 46 222C57 242 72 259 91 272C110 285 134 294 161 301C188 307 217 310 250 310C263 310 275 310 286 309C297 308 306 306 314 305C319 304 323 303 328 302C332 301 336 301 340 300L350 310L350 330C350 365 342 389 327 402C311 414 285 420 250 420C214 420 188 415 173 405C158 395 150 380 150 360L140 350L60 350L50 360C50 377 53 395 60 413C67 431 78 447 94 462C109 476 130 488 156 497C181 506 213 510 250 510C287 510 319 506 345 497C370 488 391 474 407 456C422 438 433 415 440 388C447 360 450 327 450 290L450 10L440 0ZM350 210L340 220L319 225C312 226 303 228 294 229C284 230 273 230 260 230C214 230 181 223 161 209C140 195 130 175 130 150C130 125 138 107 153 96C168 85 190 80 220 80C260 80 292 89 315 108C338 126 350 150 350 180L350 210ZM310 560L260 560L240 570L130 670L130 690L140 700L210 700L230 690L320 590L320 570L310 560Z"/>
<glyph unicode="&#xe1;" horiz-adv-x="500" d="M440 0L370 0L360 10L350 50L340 50C331 39 320 29 307 20C296 13 281 6 264 -1C247 -7 225 -10 200 -10C144 -10 102 4 73 33C44 61 30 100 30 150C30 177 35 201 46 222C57 242 72 259 91 272C110 285 134 294 161 301C188 307 217 310 250 310C263 310 275 310 286 309C297 308 306 306 314 305C319 304 323 303 328 302C332 301 336 301 340 300L350 310L350 330C350 365 342 389 327 402C311 414 285 420 250 420C214 420 188 415 173 405C158 395 150 380 150 360L140 350L60 350L50 360C50 377 53 395 60 413C67 431 78 447 94 462C109 476 130 488 156 497C181 506 213 510 250 510C287 510 319 506 345 497C370 488 391 474 407 456C422 438 433 415 440 388C447 360 450 327 450 290L450 10L440 0ZM350 210L340 220L319 225C312 226 303 228 294 229C284 230 273 230 260 230C214 230 181 223 161 209C140 195 130 175 130 150C130 125 138 107 153 96C168 85 190 80 220 80C260 80 292 89 315 108C338 126 350 150 350 180L350 210ZM260 570L240 560L190 560L180 570L180 590L270 690L290 700L360 700L370 690L370 670L260 570Z"/>
<glyph unicode="&#xe2;" horiz-adv-x="500" d="M440 0L370 0L360 10L350 50L340 50C331 39 320 29 307 20C296 13 281 6 264 -1C247 -7 225 -10 200 -10C144 -10 102 4 73 33C44 61 30 100 30 150C30 177 35 201 46 222C57 242 72 259 91 272C110 285 134 294 161 301C188 307 217 310 250 310C263 310 275 310 286 309C297 308 306 306 314 305C319 304 323 303 328 302C332 301 336 301 340 300L350 310L350 330C350 365 342 389 327 402C311 414 285 420 250 420C214 420 188 415 173 405C158 395 150 380 150 360L140 350L60 350L50 360C50 377 53 395 60 413C67 431 78 447 94 462C109 476 130 488 156 497C181 506 213 510 250 510C287 510 319 506 345 497C370 488 391 474 407 456C422 438 433 415 440 388C447 360 450 327 450 290L450 10L440 0ZM350 210L340 220L319 225C312 226 303 228 294 229C284 230 273 230 260 230C214 230 181 223 161 209C140 195 130 175 130 150C130 125 138 107 153 96C168 85 190 80 220 80C260 80 292 89 315 108C338 126 350 150 350 180L350 210ZM400 560L350 560L330 570L260 630L240 630L170 570L150 560L100 560L90 570L90 590L180 690L200 700L300 700L320 690L410 590L410 570L400 560Z"/>
<glyph unicode="&#xe3;" horiz-adv-x="500" d="M440 0L370 0L360 10L350 50L340 50C331 39 320 29 307 20C296 13 281 6 264 -1C247 -7 225 -10 200 -10C144 -10 102 4 73 33C44 61 30 100 30 150C30 177 35 201 46 222C57 242 72 259 91 272C110 285 134 294 161 301C188 307 217 310 250 310C263 310 275 310 286 309C297 308 306 306 314 305C319 304 323 303 328 302C332 301 336 301 340 300L350 310L350 330C350 365 342 389 327 402C311 414 285 420 250 420C214 420 188 415 173 405C158 395 150 380 150 360L140 350L60 350L50 360C50 377 53 395 60 413C67 431 78 447 94 462C109 476 130 488 156 497C181 506 213 510 250 510C287 510 319 506 345 497C370 488 391 474 407 456C422 438 433 415 440 388C447 360 450 327 450 290L450 10L440 0ZM350 210L340 220L319 225C312 226 303 228 294 229C284 230 273 230 260 230C214 230 181 223 161 209C140 195 130 175 130 150C130 125 138 107 153 96C168 85 190 80 220 80C260 80 292 89 315 108C338 126 350 150 350 180L350 210ZM320 550C300 550 283 554 270 561C257 568 245 576 235 585C225 594 216 602 208 609C199 616 190 620 180 620C165 620 154 616 149 607C143 598 140 585 140 570L130 560L100 560L90 570C90 585 92 599 96 612C100 625 106 637 114 647C122 657 132 665 145 671C158 677 173 680 190 680C210 680 227 676 240 669C253 662 265 654 275 645C285 636 294 628 303 621C311 614 320 610 330 610C345 610 356 615 362 624C367 633 370 645 370 660L380 670L410 670L420 660C420 630 412 604 396 583C380 561 355 550 320 550Z"/>
<glyph unicode="&#xe4;" horiz-adv-x="500" d="M440 0L370 0L360 10L350 50L340 50C331 39 320 29 307 20C296 13 281 6 264 -1C247 -7 225 -10 200 -10C144 -10 102 4 73 33C44 61 30 100 30 150C30 177 35 201 46 222C57 242 72 259 91 272C110 285 134 294 161 301C188 307 217 310 250 310C263 310 275 310 286 309C297 308 306 306 314 305C319 304 323 303 328 302C332 301 336 301 340 300L350 310L350 330C350 365 342 389 327 402C311 414 285 420 250 420C214 420 188 415 173 405C158 395 150 380 150 360L140 350L60 350L50 360C50 377 53 395 60 413C67 431 78 447 94 462C109 476 130 488 156 497C181 506 213 510 250 510C287 510 319 506 345 497C370 488 391 474 407 456C422 438 433 415 440 388C447 360 450 327 450 290L450 10L440 0ZM350 210L340 220L319 225C312 226 303 228 294 229C284 230 273 230 260 230C214 230 181 223 161 209C140 195 130 175 130 150C130 125 138 107 153 96C168 85 190 80 220 80C260 80 292 89 315 108C338 126 350 150 350 180L350 210ZM380 580L300 580L290 590L290 670L300 680L380 680L390 670L390 590L380 580ZM200 580L120 580L110 590L110 670L120 680L200 680L210 670L210 590L200 580Z"/>
<glyph unicode="&#xe5;" horiz-adv-x="500" d="M440 0L370 0L360 10L350 50L340 50C331 39 320 29 307 20C296 13 281 6 264 -1C247 -7 225 -10 200 -10C144 -10 102 4 73 33C44 61 30 100 30 150C30 177 35 201 46 222C57 242 72 259 91 272C110 285 134 294 161 301C188 307 217 310 250 310C263 310 275 310 286 309C297 308 306 306 314 305C319 304 323 303 328 302C332 301 336 301 340 300L350 310L350 330C350 365 342 389 327 402C311 414 285 420 250 420C214 420 188 415 173 405C158 395 150 380 150 360L140 350L60 350L50 360C50 377 53 395 60 413C67 431 78 447 94 462C109 476 130 488 156 497C181 506 213 510 250 510C287 510 319 506 345 497C370 488 391 474 407 456C422 438 433 415 440 388C447 360 450 327 450 290L450 10L440 0ZM350 210L340 220L319 225C312 226 303 228 294 229C284 230 273 230 260 230C214 230 181 223 161 209C140 195 130 175 130 150C130 125 138 107 153 96C168 85 190 80 220 80C260 80 292 89 315 108C338 126 350 150 350 180L350 210ZM350 640C350 615 341 593 323 576C304 559 280 550 250 550C220 550 196 559 178 576C159 593 150 615 150 640C150 665 159 687 178 704C196 721 220 730 250 730C280 730 304 721 323 704C341 687 350 665 350 640ZM290 640C290 650 287 659 282 668C276 676 265 680 250 680C235 680 224 676 219 668C213 659 210 650 210 640C210 630 213 621 219 613C224 604 235 600 250 600C265 600 276 604 282 613C287 621 290 630 290 640Z"/>
<glyph unicode="&#xe6;" horiz-adv-x="830" d="M350 210L340 220L319 225C312 226 303 228 294 229C284 230 273 230 260 230C214 230 181 223 161 209C140 195 130 175 130 150C130 125 138 107 153 96C168 85 190 80 220 80C260 80 292 89 315 108C338 126 350 150 350 180L350 210ZM690 300C690 307 689 318 687 332C684 345 679 359 671 372C663 385 651 396 635 406C619 415 597 420 570 420C543 420 521 415 505 406C489 396 477 385 469 372C461 359 456 345 454 332C451 318 450 307 450 300L460 290L680 290L690 300ZM580 -10C555 -10 533 -8 514 -4C495 1 478 7 464 14C449 21 437 28 427 37C416 45 407 53 400 60L390 60C377 47 365 37 352 28C339 19 325 12 310 7C295 1 278 -3 260 -6C242 -9 222 -10 200 -10C144 -10 102 4 73 33C44 61 30 100 30 150C30 177 35 201 46 222C57 242 72 259 91 272C110 285 134 294 161 301C188 307 217 310 250 310C263 310 275 310 286 309C297 308 306 306 314 305C319 304 323 303 328 302C332 301 336 301 340 300L350 310L350 320C350 360 342 387 326 400C310 413 285 420 250 420C214 420 188 415 173 405C158 395 150 380 150 360L140 350L60 350L50 360C50 377 53 395 60 413C67 431 78 447 94 462C109 476 130 488 156 497C181 506 213 510 250 510C290 510 323 505 349 495C374 485 395 470 410 450L420 450C435 470 457 485 484 495C511 505 540 510 570 510C610 510 645 503 674 489C703 475 726 456 745 433C764 409 778 381 787 350C796 318 800 285 800 250L800 220L790 210L460 210L450 200C450 195 451 186 454 173C456 160 461 146 470 133C479 119 492 107 509 96C526 85 550 80 580 80C600 80 619 84 637 91C655 98 669 115 680 140L690 150L770 150L780 140C777 120 771 101 761 83C751 65 738 49 721 35C704 21 684 10 661 2C637 -6 610 -10 580 -10Z"/>
<glyph unicode="&#xe7;" horiz-adv-x="520" d="M490 160C487 135 481 112 470 93C459 73 446 56 429 42C412 27 392 16 370 7C348 -2 325 -7 300 -10L280 -20L230 -70L240 -70C249 -65 256 -63 261 -62C266 -61 270 -60 275 -60L280 -60C295 -60 309 -65 322 -76C334 -87 340 -105 340 -130C340 -155 331 -175 313 -189C294 -203 270 -210 240 -210C220 -210 204 -207 191 -202C178 -196 165 -185 150 -170L150 -160L160 -150L170 -150C180 -160 190 -166 201 -168C212 -169 225 -170 240 -170C255 -170 268 -167 277 -162C286 -156 290 -145 290 -130C290 -115 286 -104 277 -99C268 -93 255 -90 240 -90L235 -90C230 -90 226 -91 221 -92C216 -93 209 -95 200 -100L190 -100L180 -90L180 -80L240 -20L240 -10C213 -7 186 0 161 11C136 22 113 39 94 60C75 81 59 108 48 139C36 170 30 207 30 250C30 290 36 326 47 358C58 390 73 417 94 440C115 463 140 480 170 492C199 504 233 510 270 510C305 510 336 505 363 496C389 487 411 474 429 459C447 443 461 425 471 405C481 384 487 363 490 340L480 330L400 330L390 340C387 350 383 360 378 370C373 379 365 388 356 395C347 402 335 408 321 413C307 418 290 420 270 420C224 420 189 406 166 377C142 348 130 306 130 250C130 194 142 152 166 123C189 94 224 80 270 80C290 80 307 82 321 87C335 92 347 98 356 105C365 112 373 121 378 131C383 140 387 150 390 160L400 170L480 170L490 160Z"/>
<glyph unicode="&#xe8;" horiz-adv-x="520" d="M380 300C380 307 379 318 377 332C374 345 369 359 361 372C353 385 341 396 325 406C309 415 287 420 260 420C233 420 211 415 195 406C179 396 167 385 159 372C151 359 146 345 144 332C141 318 140 307 140 300L150 290L370 290L380 300ZM270 -10C230 -10 195 -4 165 10C135 23 110 41 90 64C70 87 55 114 45 146C35 178 30 213 30 250C30 285 35 318 44 350C53 381 66 409 85 433C104 456 128 475 157 489C186 503 220 510 260 510C300 510 335 503 364 489C393 475 416 456 435 433C454 409 468 381 477 350C486 318 490 285 490 250L490 220L480 210L150 210L140 200C140 195 141 186 144 173C146 160 151 146 160 133C169 119 182 107 199 96C216 85 240 80 270 80C290 80 309 84 327 91C345 98 359 115 370 140L380 150L460 150L470 140C467 120 461 101 451 83C441 65 428 49 411 35C394 21 374 10 351 2C327 -6 300 -10 270 -10ZM320 560L270 560L250 570L140 670L140 690L150 700L220 700L240 690L330 590L330 570L320 560Z"/>
<glyph unicode="&#xe9;" horiz-adv-x="520" d="M380 300C380 307 379 318 377 332C374 345 369 359 361 372C353 385 341 396 325 406C309 415 287 420 260 420C233 420 211 415 195 406C179 396 167 385 159 372C151 359 146 345 144 332C141 318 140 307 140 300L150 290L370 290L380 300ZM270 -10C230 -10 195 -4 165 10C135 23 110 41 90 64C70 87 55 114 45 146C35 178 30 213 30 250C30 285 35 318 44 350C53 381 66 409 85 433C104 456 128 475 157 489C186 503 220 510 260 510C300 510 335 503 364 489C393 475 416 456 435 433C454 409 468 381 477 350C486 318 490 285 490 250L490 220L480 210L150 210L140 200C140 195 141 186 144 173C146 160 151 146 160 133C169 119 182 107 199 96C216 85 240 80 270 80C290 80 309 84 327 91C345 98 359 115 370 140L380 150L460 150L470 140C467 120 461 101 451 83C441 65 428 49 411 35C394 21 374 10 351 2C327 -6 300 -10 270 -10ZM270 570L250 560L200 560L190 570L190 590L280 690L300 700L370 700L380 690L380 670L270 570Z"/>
<glyph unicode="&#xea;" horiz-adv-x="520" d="M380 300C380 307 379 318 377 332C374 345 369 359 361 372C353 385 341 396 325 406C309 415 287 420 260 420C233 420 211 415 195 406C179 396 167 385 159 372C151 359 146 345 144 332C141 318 140 307 140 300L150 290L370 290L380 300ZM270 -10C230 -10 195 -4 165 10C135 23 110 41 90 64C70 87 55 114 45 146C35 178 30 213 30 250C30 285 35 318 44 350C53 381 66 409 85 433C104 456 128 475 157 489C186 503 220 510 260 510C300 510 335 503 364 489C393 475 416 456 435 433C454 409 468 381 477 350C486 318 490 285 490 250L490 220L480 210L150 210L140 200C140 195 141 186 144 173C146 160 151 146 160 133C169 119 182 107 199 96C216 85 240 80 270 80C290 80 309 84 327 91C345 98 359 115 370 140L380 150L460 150L470 140C467 120 461 101 451 83C441 65 428 49 411 35C394 21 374 10 351 2C327 -6 300 -10 270 -10ZM410 560L360 560L340 570L270 630L250 630L180 570L160 560L110 560L100 570L100 590L190 690L210 700L310 700L330 690L420 590L420 570L410 560Z"/>
<glyph unicode="&#xeb;" horiz-adv-x="520" d="M380 300C380 307 379 318 377 332C374 345 369 359 361 372C353 385 341 396 325 406C309 415 287 420 260 420C233 420 211 415 195 406C179 396 167 385 159 372C151 359 146 345 144 332C141 318 140 307 140 300L150 290L370 290L380 300ZM270 -10C230 -10 195 -4 165 10C135 23 110 41 90 64C70 87 55 114 45 146C35 178 30 213 30 250C30 285 35 318 44 350C53 381 66 409 85 433C104 456 128 475 157 489C186 503 220 510 260 510C300 510 335 503 364 489C393 475 416 456 435 433C454 409 468 381 477 350C486 318 490 285 490 250L490 220L480 210L150 210L140 200C140 195 141 186 144 173C146 160 151 146 160 133C169 119 182 107 199 96C216 85 240 80 270 80C290 80 309 84 327 91C345 98 359 115 370 140L380 150L460 150L470 140C467 120 461 101 451 83C441 65 428 49 411 35C394 21 374 10 351 2C327 -6 300 -10 270 -10ZM390 580L310 580L300 590L300 670L310 680L390 680L400 670L400 590L390 580ZM210 580L130 580L120 590L120 670L130 680L210 680L220 670L220 590L210 580Z"/>
<glyph unicode="&#xec;" horiz-adv-x="220" d="M150 0L70 0L60 10L60 490L70 500L150 500L160 490L160 10L150 0ZM161 560L111 560L91 570L-19 670L-19 690L-9 700L61 700L81 690L171 590L171 570L161 560Z"/>
<glyph unicode="&#xed;" horiz-adv-x="220" d="M150 0L70 0L60 10L60 490L70 500L150 500L160 490L160 10L150 0ZM131 570L111 560L61 560L51 570L51 590L141 690L161 700L231 700L241 690L241 670L131 570Z"/>
<glyph unicode="&#xee;" horiz-adv-x="220" d="M150 0L70 0L60 10L60 490L70 500L150 500L160 490L160 10L150 0ZM261 560L211 560L191 570L121 630L101 630L31 570L11 560L-39 560L-49 570L-49 590L41 690L61 700L161 700L181 690L271 590L271 570L261 560Z"/>
<glyph unicode="&#xef;" horiz-adv-x="220" d="M150 0L70 0L60 10L60 490L70 500L150 500L160 490L160 10L150 0ZM241 580L161 580L151 590L151 670L161 680L241 680L251 670L251 590L241 580ZM61 580L-19 580L-29 590L-29 670L-19 680L61 680L71 670L71 590L61 580Z"/>
<glyph unicode="&#xf0;" horiz-adv-x="520" d="M360 470C355 495 347 516 338 532C328 547 315 560 300 570L290 570L260 540L240 530L190 530L180 540L180 570L210 600L210 610C197 615 185 618 176 619C167 620 158 620 149 620L140 620L130 630L130 640L170 680L190 690L200 690C209 690 220 690 232 689C244 688 257 685 270 680L280 680L310 710L330 720L390 720L400 710L400 690L360 650L360 640C385 620 405 597 422 572C439 547 452 518 462 486C472 454 479 419 484 380C488 341 490 297 490 250C490 165 469 100 428 56C386 12 330 -10 260 -10C230 -10 201 -5 174 6C146 16 121 32 100 53C79 74 62 100 49 133C36 166 30 205 30 250C30 290 35 326 46 358C57 390 72 417 91 440C110 463 134 480 161 492C188 504 217 510 250 510C267 510 282 508 295 504C308 500 318 495 326 490C334 485 342 478 350 470L360 470ZM390 250C390 310 378 353 355 380C332 407 300 420 260 420C220 420 188 407 165 380C142 353 130 310 130 250C130 217 134 190 141 169C148 147 157 130 169 117C181 104 195 94 211 89C226 83 243 80 260 80C300 80 332 93 355 120C378 147 390 190 390 250Z"/>
<glyph unicode="&#xf1;" horiz-adv-x="540" d="M480 0L400 0L390 10L390 300C390 313 389 326 387 340C385 354 381 367 374 379C367 391 357 401 344 409C331 416 313 420 290 420C244 420 211 407 191 381C170 354 160 311 160 250L160 10L150 0L70 0L60 10L60 490L70 500L140 500L150 490L160 450L170 450C179 461 190 471 201 480C212 487 225 494 242 501C258 507 277 510 300 510C335 510 364 505 389 494C413 483 433 469 448 450C463 431 473 409 480 384C487 358 490 330 490 300L490 10L480 0ZM340 550C320 550 303 554 290 561C277 568 265 576 255 585C245 594 236 602 228 609C219 616 210 620 200 620C185 620 174 616 169 607C163 598 160 585 160 570L150 560L120 560L110 570C110 585 112 599 116 612C120 625 126 637 134 647C142 657 152 665 165 671C178 677 193 680 210 680C230 680 247 676 260 669C273 662 285 654 295 645C305 636 314 628 323 621C331 614 340 610 350 610C365 610 376 615 382 624C387 633 390 645 390 660L400 670L430 670L440 660C440 630 432 604 416 583C400 561 375 550 340 550Z"/>
<glyph unicode="&#xf2;" horiz-adv-x="540" d="M30 250C30 290 36 326 47 358C58 390 73 417 94 440C115 463 140 480 170 492C199 504 233 510 270 510C307 510 341 504 371 492C400 480 425 463 446 440C467 417 483 390 494 358C505 326 510 290 510 250C510 210 505 174 494 142C483 110 467 83 446 60C425 37 400 20 371 8C341 -4 307 -10 270 -10C233 -10 199 -4 170 8C140 20 115 37 94 60C73 83 58 110 47 142C36 174 30 210 30 250ZM130 250C130 194 142 152 166 123C189 94 224 80 270 80C316 80 351 94 375 123C398 152 410 194 410 250C410 306 398 348 375 377C351 406 316 420 270 420C224 420 189 406 166 377C142 348 130 306 130 250ZM330 560L280 560L260 570L150 670L150 690L160 700L230 700L250 690L340 590L340 570L330 560Z"/>
<glyph unicode="&#xf3;" horiz-adv-x="540" d="M30 250C30 290 36 326 47 358C58 390 73 417 94 440C115 463 140 480 170 492C199 504 233 510 270 510C307 510 341 504 371 492C400 480 425 463 446 440C467 417 483 390 494 358C505 326 510 290 510 250C510 210 505 174 494 142C483 110 467 83 446 60C425 37 400 20 371 8C341 -4 307 -10 270 -10C233 -10 199 -4 170 8C140 20 115 37 94 60C73 83 58 110 47 142C36 174 30 210 30 250ZM130 250C130 194 142 152 166 123C189 94 224 80 270 80C316 80 351 94 375 123C398 152 410 194 410 250C410 306 398 348 375 377C351 406 316 420 270 420C224 420 189 406 166 377C142 348 130 306 130 250ZM280 570L260 560L210 560L200 570L200 590L290 690L310 700L380 700L390 690L390 670L280 570Z"/>
<glyph unicode="&#xf4;" horiz-adv-x="540" d="M30 250C30 290 36 326 47 358C58 390 73 417 94 440C115 463 140 480 170 492C199 504 233 510 270 510C307 510 341 504 371 492C400 480 425 463 446 440C467 417 483 390 494 358C505 326 510 290 510 250C510 210 505 174 494 142C483 110 467 83 446 60C425 37 400 20 371 8C341 -4 307 -10 270 -10C233 -10 199 -4 170 8C140 20 115 37 94 60C73 83 58 110 47 142C36 174 30 210 30 250ZM130 250C130 194 142 152 166 123C189 94 224 80 270 80C316 80 351 94 375 123C398 152 410 194 410 250C410 306 398 348 375 377C351 406 316 420 270 420C224 420 189 406 166 377C142 348 130 306 130 250ZM420 560L370 560L350 570L280 630L260 630L190 570L170 560L120 560L110 570L110 590L200 690L220 700L320 700L340 690L430 590L430 570L420 560Z"/>
</font>
</defs>
</svg>
